<?xml version="1.0" encoding="utf-8"?>
<!-- Generator: Adobe Illustrator 24.3.0, SVG Export Plug-In . SVG Version: 6.00 Build 0)  -->
<svg version="1.1" id="Layer_1" xmlns="http://www.w3.org/2000/svg" xmlns:xlink="http://www.w3.org/1999/xlink" x="0px" y="0px"
	 viewBox="0 0 640 838.5" style="enable-background:new 0 0 640 838.5;" xml:space="preserve">
<style type="text/css">
	.st0{fill:#F2F2F2;stroke:#B3B3B3;stroke-width:1.3;stroke-dasharray:4,4;}
	.st1{font-family:'TheSansMono-W5Regular';}
	.st2{font-size:18px;}
	.st3{fill:none;stroke:#999999;stroke-width:1.3;}
	.st4{font-family:'TheSerif-Plain';}
	.st5{font-size:44px;}
	.st6{stroke:#000000;stroke-width:1.3;}
	.st7{fill:#999999;}
	.st8{fill:#F2F2F2;}
</style>
<rect x="116.5" y="114.3" class="st0" width="114.7" height="212.3"/>
<rect x="230.5" y="114.3" class="st0" width="114.7" height="212.3"/>
<text transform="matrix(1 0 0 1 316.5 91.5)" class="st1 st2">x = 0</text>
<text transform="matrix(1 0 0 1 202.5 91.5)" class="st1 st2">x = -50</text>
<rect x="345.2" y="114.3" class="st3" width="229.3" height="212.3"/>
<text transform="matrix(1 0 0 1 232.665 309.5938)" class="st4 st5">Some text.</text>
<line class="st6" x1="345.2" y1="114.3" x2="345.2" y2="103.4"/>
<line class="st6" x1="231.5" y1="114.3" x2="231.5" y2="103.4"/>
<text transform="matrix(1 0 0 1 433.2178 203.9668)"><tspan x="0" y="0" class="st7 st4 st2">Screen</tspan><tspan x="-6.7" y="24" class="st7 st4 st2">(Visible)</tspan></text>
<text transform="matrix(1 0 0 1 433.2178 586.9668)"><tspan x="0" y="0" class="st7 st4 st2">Screen</tspan><tspan x="-6.7" y="24" class="st7 st4 st2">(Visible)</tspan></text>
<text transform="matrix(1 0 0 1 90.5 40.5)" class="st4 st2">Partially on screen:</text>
<polyline class="st0" points="346.5,705.5 118.5,705.5 118.5,493.2 346.5,493.2 "/>
<text transform="matrix(1 0 0 1 318.5 471.5)" class="st1 st2">x = 0</text>
<text transform="matrix(1 0 0 1 90.5 471.5)" class="st1 st2">x = -100</text>
<text transform="matrix(1 0 0 1 120.665 689.5938)" class="st4 st5">Some text.</text>
<line class="st6" x1="346.2" y1="494.3" x2="346.2" y2="483.4"/>
<line class="st6" x1="119.5" y1="494.3" x2="119.5" y2="483.4"/>
<text transform="matrix(1 0 0 1 90.5 420.5)" class="st4 st2">All the way off screen:</text>
<rect x="346.2" y="493.1" class="st3" width="229.3" height="212.3"/>
<rect x="181" y="188.3" class="st8" width="114.7" height="45.2"/>
<text transform="matrix(1 0 0 1 191.2603 206.5029)"><tspan x="0" y="0" class="st7 st4 st2">Offscreen</tspan><tspan x="-2" y="24" class="st7 st4 st2">(Invisible)</tspan></text>
<text transform="matrix(1 0 0 1 194.2603 591.5029)"><tspan x="0" y="0" class="st7 st4 st2">Offscreen</tspan><tspan x="-2" y="24" class="st7 st4 st2">(Invisible)</tspan></text>
</svg>
