<svg width="323" height="354" viewBox="0 0 323 354" fill="none" xmlns="http://www.w3.org/2000/svg">
<path fill-rule="evenodd" clip-rule="evenodd" d="M259.2 64.2002C246.043 65.6804 228.779 66.9997 206.4 66.9997C184.022 66.9997 166.757 65.6809 153.601 64.2008C154.817 75.0147 155.925 88.6034 156.281 105.526C146.014 106.56 132.993 107.401 116.401 107.401C109.017 107.401 102.34 107.234 96.2983 106.958C95.8314 84.3487 93.8554 68.8184 92.3267 58.118C92.1834 57.1148 92.0295 56.0656 91.8717 54.9901C91.1785 50.2644 90.4106 45.0295 90.1385 40.949C89.9606 38.2799 89.8088 34.0218 90.6514 29.3273C91.5513 24.3137 93.9035 17.0707 100.187 10.7871C106.471 4.50356 113.714 2.15138 118.727 1.25148C123.422 0.40889 127.68 0.56069 130.349 0.73863C134.429 1.01066 139.664 1.77858 144.39 2.47181L144.391 2.47198L144.391 2.47202L144.392 2.47215C145.467 2.62976 146.516 2.78364 147.518 2.92681C159.734 4.672 178.246 6.99976 206.4 6.99973C234.555 6.99971 253.066 4.67143 265.283 2.92625C266.286 2.78296 267.335 2.62906 268.41 2.4713C273.136 1.77807 278.371 1.01013 282.452 0.738117C285.121 0.560192 289.379 0.408417 294.074 1.25107C299.087 2.15104 306.33 4.50334 312.614 10.787C318.897 17.0705 321.249 24.3135 322.149 29.3271C322.992 34.0215 322.84 38.2795 322.662 40.9487C322.39 45.0291 321.622 50.2642 320.929 54.9898C320.771 56.0653 320.617 57.1145 320.474 58.1177C318.729 70.3342 316.4 88.8459 316.4 117C316.4 145.154 318.729 163.666 320.474 175.883C320.616 176.876 320.768 177.915 320.924 178.98L320.926 178.99L320.928 179.002L320.929 179.01C321.622 183.736 322.39 188.971 322.662 193.051C322.84 195.721 322.992 199.979 322.149 204.673C321.249 209.687 318.897 216.93 312.614 223.213C306.33 229.497 299.087 231.849 294.073 232.749C289.379 233.592 285.121 233.44 282.452 233.262C278.371 232.99 273.136 232.222 268.411 231.529L268.403 231.527C267.33 231.37 266.283 231.217 265.283 231.074C260.416 230.378 254.551 229.591 247.475 228.894C247.879 206.144 249.847 190.684 251.363 180.073C251.503 179.097 251.653 178.071 251.811 176.994L251.812 176.986L251.813 176.983L251.816 176.964L251.852 176.718C252.196 174.374 252.58 171.751 252.914 169.14C255.106 169.353 257.2 169.575 259.2 169.8C257.72 156.643 256.4 139.379 256.4 117C256.4 94.6211 257.72 77.3569 259.2 64.2002ZM286.69 60.5941C286.688 60.5955 286.632 60.5987 286.527 60.6C286.639 60.5935 286.692 60.5928 286.69 60.5941ZM262.8 36.8735C262.801 36.7683 262.805 36.7119 262.806 36.71C262.807 36.7082 262.807 36.7608 262.8 36.8735ZM262.806 197.29C262.805 197.288 262.801 197.232 262.8 197.127L262.803 197.184C262.804 197.21 262.805 197.23 262.806 197.247C262.807 197.277 262.806 197.29 262.806 197.29ZM286.527 173.4C286.575 173.401 286.612 173.402 286.64 173.403C286.672 173.404 286.69 173.406 286.69 173.406C286.692 173.407 286.64 173.407 286.527 173.4ZM149.995 36.7104C149.996 36.7123 149.999 36.7687 150 36.8739C149.994 36.7612 149.993 36.7085 149.995 36.7104ZM126.274 60.6005C126.169 60.5992 126.112 60.5959 126.11 60.5946C126.108 60.5933 126.161 60.594 126.274 60.6005Z" fill="black"/>
<path fill-rule="evenodd" clip-rule="evenodd" d="M66.4 237.4L66.4 237C66.3844 214.815 65.0718 197.679 63.6005 184.601C76.7571 186.081 94.0212 187.4 116.4 187.4L116.4 127.4C88.2457 127.4 69.734 125.072 57.5176 123.327C56.5144 123.183 55.4652 123.029 54.3897 122.872C49.664 122.178 44.4291 121.411 40.3486 121.139C37.6795 120.961 33.4214 120.809 28.727 121.651C23.7133 122.551 16.4703 124.903 10.1868 131.187C3.90319 137.471 1.55101 144.714 0.651129 149.727C-0.19146 154.422 -0.0396482 158.68 0.138296 161.349C0.410332 165.429 1.17827 170.664 1.8715 175.39L1.87169 175.391C2.0294 176.466 2.18325 177.515 2.32651 178.518C4.06713 190.702 6.38779 209.149 6.39999 237.179C6.39019 265.232 4.06809 283.692 2.3266 295.882C2.18329 296.885 2.02938 297.934 1.8716 299.01C1.17837 303.736 0.410444 308.971 0.138415 313.051C-0.0395277 315.72 -0.191334 319.978 0.651253 324.673C1.55114 329.686 3.90331 336.929 10.1869 343.213C16.4705 349.496 23.7135 351.849 28.7272 352.749C33.4216 353.591 37.6797 353.439 40.3488 353.261C44.4292 352.989 49.664 352.221 54.3896 351.528L54.397 351.527C55.47 351.37 56.5168 351.216 57.5177 351.073C69.7341 349.328 88.2459 347.2 116.4 347.2C144.554 347.2 163.066 349.728 175.282 351.473C176.286 351.616 177.335 351.77 178.41 351.928C183.136 352.621 188.371 353.389 192.451 353.661C195.12 353.839 199.379 353.991 204.073 353.148C209.087 352.249 216.33 349.896 222.613 343.613C228.897 337.329 231.249 330.086 232.149 325.073C232.992 320.378 232.84 316.12 232.662 313.451C232.39 309.37 231.622 304.136 230.929 299.41L230.928 299.404C230.77 298.33 230.617 297.283 230.474 296.282C228.728 284.066 226.4 265.554 226.4 237.4C226.4 209.246 228.728 190.734 230.474 178.518C230.617 177.517 230.77 176.471 230.928 175.398L230.929 175.39C231.622 170.664 232.39 165.429 232.662 161.349C232.84 158.68 232.992 154.422 232.149 149.727C231.249 144.714 228.897 137.471 222.613 131.187C216.33 124.903 209.087 122.551 204.073 121.651C199.379 120.809 195.121 120.961 192.451 121.139C188.371 121.411 183.136 122.179 178.41 122.872L178.405 122.873C177.331 123.03 176.284 123.184 175.283 123.327C163.066 125.072 144.554 127.4 116.4 127.4L116.4 187.4C138.779 187.4 156.043 186.081 169.2 184.601C167.72 197.757 166.4 215.021 166.4 237.4C166.4 259.778 167.719 277.042 169.2 290.199C156.043 288.719 138.779 287.2 116.4 287.2C94.0212 287.2 76.7572 288.319 63.6006 289.799C65.0719 276.721 66.3844 259.585 66.4 237.4ZM59.9943 157.11C59.9956 157.112 59.9989 157.168 60.0002 157.274C59.9936 157.161 59.993 157.108 59.9943 157.11ZM36.2736 181C36.1683 180.999 36.1119 180.996 36.11 180.995C36.1082 180.993 36.1608 180.994 36.2736 181ZM196.69 180.995C196.688 180.996 196.632 180.999 196.527 181C196.639 180.994 196.692 180.993 196.69 180.995ZM172.8 157.274C172.801 157.169 172.805 157.112 172.806 157.11C172.807 157.108 172.807 157.161 172.8 157.274ZM36.1101 293.405C36.112 293.404 36.1684 293.401 36.2736 293.4C36.1609 293.406 36.1082 293.407 36.1101 293.405ZM60.0003 317.126C59.999 317.231 59.9957 317.288 59.9944 317.29C59.9931 317.292 59.9938 317.239 60.0003 317.126ZM172.806 317.69C172.804 317.688 172.801 317.631 172.8 317.526C172.806 317.639 172.807 317.691 172.806 317.69ZM196.527 293.799C196.632 293.801 196.688 293.804 196.69 293.805C196.692 293.807 196.639 293.806 196.527 293.799Z" fill="black"/>
</svg>
