<?xml version="1.0" ?><!DOCTYPE svg  PUBLIC '-//W3C//DTD SVG 1.1//EN'  'http://www.w3.org/Graphics/SVG/1.1/DTD/svg11.dtd'><!-- Uploaded to: SVG Repo, www.svgrepo.com, Generator: SVG Repo Mixer Tools -->
<svg fill="currentColor" viewBox="0 0 32 32" style="fill-rule:evenodd;clip-rule:evenodd;stroke-linejoin:round;stroke-miterlimit:2;" version="1.1" xml:space="preserve" xmlns="http://www.w3.org/2000/svg"  xmlns:xlink="http://www.w3.org/1999/xlink"><path d="M18.257,6.671l-12.664,12.664c-0.119,0.119 -0.206,0.266 -0.253,0.428l-2.3,7.899c-0.102,0.349 -0.006,0.725 0.25,0.984c0.256,0.258 0.631,0.357 0.981,0.258l7.957,-2.242c0.165,-0.047 0.315,-0.135 0.436,-0.256l12.664,-12.664l-7.071,-7.071Zm1.414,-1.414l7.071,7.071l1.793,-1.792c0.938,-0.938 1.465,-2.21 1.465,-3.536c-0,-1.326 -0.527,-2.598 -1.465,-3.536c0,0 0,0 0,0c-0.938,-0.937 -2.209,-1.464 -3.535,-1.464c-1.327,0 -2.598,0.527 -3.536,1.464l-1.793,1.793Z"/><g id="Icon"/></svg>