<svg width="659" height="560" viewBox="0 0 659 560" fill="none" xmlns="http://www.w3.org/2000/svg">
<rect y="140" width="267" height="140" fill="#1439A6"/>
<rect x="267" y="140" width="392" height="140" fill="#CE0F29"/>
<rect x="0.00195312" y="280" width="308.255" height="140" fill="#CE0F29"/>
<rect x="308.256" y="280" width="53.7438" height="140" fill="#CE0F29"/>
<rect x="362" y="280" width="252.905" height="140" fill="#F1F1F1"/>
<rect x="614.902" y="280" width="44.0936" height="140" fill="#F1F1F1"/>
<rect x="0.00195312" y="420" width="561.168" height="139.348" fill="#F1F1F1"/>
<rect x="561.154" y="420" width="97.8389" height="139.348" fill="#F1F1F1"/>
<rect width="270.792" height="140" fill="#F1F1F1"/>
<rect x="270.787" width="47.2122" height="140" fill="#F1F1F1"/>
<rect x="318" width="290.377" height="140" fill="#1439A6"/>
<rect x="608.373" width="50.6269" height="140" fill="#1439A6"/>
<path d="M94.8475 118V25.584H87.0395V110.32L41.0875 25.584H27.5195V118H35.4555L35.3275 31.6L82.1755 118H94.8475Z" fill="black"/>
<path d="M188.679 93.68L196.103 118H204.679L176.135 25.584H164.615L134.535 118H142.983L150.663 93.68H188.679ZM186.887 86.256H152.839L170.375 31.984L186.887 86.256Z" fill="black"/>
<path d="M252.542 25.584H244.35V118H303.23V110.32H252.542V25.584Z" fill="black"/>
<path d="M392.003 396H399.939V303.584H392.003V396Z" fill="black"/>
<path d="M518.613 396V303.584H510.805V388.32L464.853 303.584H451.285V396H459.221L459.093 309.6L505.941 396H518.613Z" fill="black"/>
<path d="M592.732 311.136V396H601.052V311.136H632.667V303.584H560.859V311.136H592.732Z" fill="black"/>
<path d="M27.5195 535H90.6235V527.32H35.7115V492.12H79.9995V484.568H35.7115V450.136H89.2155V442.584H27.5195V535Z" fill="black"/>
<path d="M159.05 492.888C173.386 492.888 180.298 498.776 180.426 512.472C180.554 521.688 181.578 531.416 183.37 535H193.098C190.282 531.16 189.386 520.408 189.13 512.344C188.746 497.88 181.194 489.304 168.65 488.92C181.962 487.256 191.178 478.68 191.178 466.904C191.178 451.928 179.146 442.584 162.89 442.584H122.57V535H130.762V492.888H159.05ZM163.53 450.264C174.538 450.264 182.73 456.792 182.73 467.544C182.73 477.912 173.514 485.208 160.714 485.208H130.762V450.264H163.53Z" fill="black"/>
<path d="M292.448 535V442.584H284.64V527.32L238.688 442.584H225.12V535H233.056L232.928 448.6L279.776 535H292.448Z" fill="black"/>
<path d="M376.039 510.68L383.463 535H392.039L363.495 442.584H351.975L321.895 535H330.343L338.023 510.68H376.039ZM374.247 503.256H340.199L357.735 448.984L374.247 503.256Z" fill="black"/>
<path d="M436.757 450.136V535H445.077V450.136H476.693V442.584H404.885V450.136H436.757Z" fill="black"/>
<path d="M503.648 535H511.584V442.584H503.648V535Z" fill="black"/>
<path d="M584.69 537.688C608.498 537.688 625.65 519.128 625.65 488.28C625.65 459.736 609.266 439.896 584.69 439.896C560.242 439.896 543.729 459.736 543.729 488.408C543.729 519 560.882 537.688 584.69 537.688ZM584.69 447.192C605.554 447.192 617.201 465.112 617.201 488.28C617.201 515.16 603.762 530.136 584.69 530.136C565.618 530.136 552.177 515.16 552.177 488.408C552.177 465.24 563.954 447.192 584.69 447.192Z" fill="black"/>
<path d="M413.832 71.408C413.832 41.2 396.296 25.584 373.128 25.584H341.64V118H372.104C398.472 118 413.832 100.464 413.832 71.408ZM405.384 71.408C405.384 94.448 395.144 110.32 373.896 110.32H349.832V33.136H374.92C393.48 33.136 405.384 47.6 405.384 71.408Z" fill="#F1F1F1"/>
<path d="M456.68 118H519.784V110.32H464.872V75.12H509.16V67.568H464.872V33.136H518.376V25.584H456.68V118Z" fill="#F1F1F1"/>
<path d="M584.242 72.048C590.898 74.096 597.17 75.888 603.698 77.552C615.602 80.496 620.978 86.128 620.978 94.448C620.978 105.2 610.994 112.24 595.89 112.24C575.794 112.24 568.625 98.032 565.938 91.376L558.258 95.984C565.426 114.032 582.706 120.176 595.89 120.176C615.346 120.176 629.81 109.808 629.81 93.808C629.81 79.344 617.522 72.304 605.874 69.36C599.218 67.696 593.074 66.032 586.93 64.112C574.258 60.144 569.266 55.152 569.266 47.472C569.266 37.616 578.226 30.96 592.306 30.96C606.13 30.96 616.242 40.688 619.954 48.112L627.122 42.352C618.93 31.216 607.41 23.408 592.306 23.408C573.874 23.408 560.945 32.752 560.945 47.728C560.945 61.168 572.978 68.464 584.242 72.048Z" fill="#F1F1F1"/>
<path d="M27.6475 257H35.5835V164.584H27.6475V257Z" fill="#F1F1F1"/>
<path d="M138.002 228.584C134.802 244.328 123.41 252.008 108.946 252.008C88.9775 252.008 76.1775 235.24 76.1775 210.792C76.1775 186.344 88.5935 169.192 109.842 169.192C123.538 169.192 133.778 178.408 138.002 189.416L145.554 184.68C139.154 170.728 126.098 161.896 109.97 161.896C85.2655 161.896 67.7295 181.096 67.7295 210.92C67.7295 240.232 83.8575 259.688 108.946 259.688C123.282 259.688 134.162 252.136 139.41 239.464L140.818 257H146.322V209.64H97.8095L102.034 217.064H138.002V228.584Z" fill="#F1F1F1"/>
<path d="M248.198 257V164.584H240.39V249.32L194.438 164.584H180.87V257H188.806L188.678 170.6L235.526 257H248.198Z" fill="#F1F1F1"/>
<path d="M306.317 211.048C312.973 213.096 319.245 214.888 325.773 216.552C337.677 219.496 343.053 225.128 343.053 233.448C343.053 244.2 333.069 251.24 317.965 251.24C297.869 251.24 290.701 237.032 288.013 230.376L280.333 234.984C287.501 253.032 304.781 259.176 317.965 259.176C337.421 259.176 351.885 248.808 351.885 232.808C351.885 218.344 339.597 211.304 327.949 208.36C321.293 206.696 315.149 205.032 309.005 203.112C296.333 199.144 291.341 194.152 291.341 186.472C291.341 176.616 300.301 169.96 314.381 169.96C328.205 169.96 338.317 179.688 342.029 187.112L349.197 181.352C341.005 170.216 329.485 162.408 314.381 162.408C295.949 162.408 283.021 171.752 283.021 186.728C283.021 200.168 295.053 207.464 306.317 211.048Z" fill="#F1F1F1"/>
<path d="M404.763 257H413.083V220.52L443.803 164.584H434.331L408.859 212.584L384.027 164.584H374.555L404.763 220.648V257Z" fill="#F1F1F1"/>
<path d="M494.917 211.048C501.573 213.096 507.845 214.888 514.373 216.552C526.277 219.496 531.653 225.128 531.653 233.448C531.653 244.2 521.669 251.24 506.565 251.24C486.469 251.24 479.301 237.032 476.613 230.376L468.933 234.984C476.101 253.032 493.381 259.176 506.565 259.176C526.021 259.176 540.484 248.808 540.484 232.808C540.484 218.344 528.197 211.304 516.549 208.36C509.893 206.696 503.749 205.032 497.605 203.112C484.933 199.144 479.941 194.152 479.941 186.472C479.941 176.616 488.901 169.96 502.981 169.96C516.805 169.96 526.917 179.688 530.629 187.112L537.797 181.352C529.605 170.216 518.085 162.408 502.981 162.408C484.549 162.408 471.621 171.752 471.621 186.728C471.621 200.168 483.653 207.464 494.917 211.048Z" fill="#F1F1F1"/>
<path d="M595.607 172.136V257H603.927V172.136H635.542V164.584H563.734V172.136H595.607Z" fill="#F1F1F1"/>
<path d="M27.5195 396H90.6235V388.32H35.7115V353.12H79.9995V345.568H35.7115V311.136H89.2155V303.584H27.5195V396Z" fill="#F1F1F1"/>
<path d="M176.074 396H187.082L217.418 310.24L217.29 396H225.226V303.584H211.402L181.578 388.32L151.754 303.584H137.93V396H145.866L145.738 310.24L176.074 396Z" fill="#F1F1F1"/>
<path d="M298.737 350.048C305.393 352.096 311.665 353.888 318.193 355.552C330.097 358.496 335.473 364.128 335.473 372.448C335.473 383.2 325.489 390.24 310.385 390.24C290.289 390.24 283.121 376.032 280.433 369.376L272.753 373.984C279.921 392.032 297.201 398.176 310.385 398.176C329.841 398.176 344.305 387.808 344.305 371.808C344.305 357.344 332.017 350.304 320.369 347.36C313.713 345.696 307.569 344.032 301.425 342.112C288.753 338.144 283.761 333.152 283.761 325.472C283.761 315.616 292.721 308.96 306.801 308.96C320.625 308.96 330.737 318.688 334.449 326.112L341.617 320.352C333.425 309.216 321.905 301.408 306.801 301.408C288.369 301.408 275.441 310.752 275.441 325.728C275.441 339.168 287.473 346.464 298.737 350.048Z" fill="#F1F1F1"/>
</svg>
