<svg viewBox="0 0 28 28" fill="none" xmlns="http://www.w3.org/2000/svg">
<path fill-rule="evenodd" clip-rule="evenodd" d="M0 14.3552C0 20.6965 4.01105 26.0772 9.57427 27.9754C10.2747 28.1076 10.53 27.6643 10.53 27.2836C10.53 26.9426 10.5179 26.0402 10.5111 24.8426C6.6169 25.7098 5.79527 22.918 5.79527 22.918C5.15841 21.2596 4.24052 20.8181 4.24052 20.8181C2.9694 19.9272 4.33678 19.9457 4.33678 19.9457C5.74198 20.047 6.48111 21.4253 6.48111 21.4253C7.73075 23.6186 9.75819 22.985 10.5558 22.6175C10.683 21.6896 11.0448 21.0578 11.4444 20.6982C8.3358 20.3361 5.06731 19.105 5.06731 13.6044C5.06731 12.0367 5.61306 10.7554 6.50861 9.75165C6.36508 9.38858 5.88465 7.92927 6.64612 5.95356C6.64612 5.95356 7.82185 5.56671 10.4956 7.42433C11.6129 7.10621 12.8101 6.9467 14.0004 6.94142C15.1899 6.9467 16.3871 7.10621 17.5061 7.42433C20.1782 5.56671 21.3522 5.95356 21.3522 5.95356C22.1154 7.92927 21.6349 9.38858 21.4914 9.75165C22.3887 10.7554 22.9301 12.0367 22.9301 13.6044C22.9301 19.1182 19.6573 20.3316 16.5384 20.6877C17.0412 21.1309 17.4881 22.0069 17.4881 23.3454C17.4881 25.2648 17.4717 26.8131 17.4717 27.2836C17.4717 27.6679 17.7236 28.1138 18.4343 27.9736C23.9924 26.072 28 20.6956 28 14.3552C28 6.42678 21.7312 0 13.9987 0C6.26882 0 0 6.42678 0 14.3552Z" fill="currentColor"/>
</svg>
