<svg width="91" height="112" viewBox="0 0 91 112" fill="none" xmlns="http://www.w3.org/2000/svg">
<path d="M88.0937 38.1846C87.4454 38.6887 75.9991 45.1517 75.9991 59.5228C75.9991 76.1452 90.5641 82.0258 91 82.1714C90.9329 82.5299 88.6862 90.225 83.3207 98.0658C78.5366 104.966 73.54 111.854 65.939 111.854C58.3379 111.854 56.3818 107.43 47.6071 107.43C39.0559 107.43 36.0155 112 29.0628 112C22.1101 112 17.2588 105.615 11.681 97.7746C5.22012 88.5673 0 74.2634 0 60.6877C0 38.9127 14.129 27.3643 28.0344 27.3643C35.423 27.3643 41.5821 32.2256 46.221 32.2256C50.6363 32.2256 57.5219 27.0731 65.9278 27.0731C69.1135 27.0731 80.5598 27.3643 88.0937 38.1846ZM61.9372 17.8546C65.4136 13.7214 67.8727 7.9864 67.8727 2.25143C67.8727 1.45615 67.8057 0.649665 67.6604 0C62.0043 0.212821 55.2752 3.77478 51.2175 8.49045C48.0318 12.1196 45.0585 17.8546 45.0585 23.668C45.0585 24.5417 45.2038 25.4153 45.2709 25.6954C45.6285 25.7626 46.2098 25.841 46.7911 25.841C51.8659 25.841 58.2485 22.4358 61.9372 17.8546Z" fill="currentColor"/>
</svg>
