<svg width="95" height="121" viewBox="0 0 95 121" xmlns="http://www.w3.org/2000/svg">
<path d="M86.4667 54.887L85.6167 53.3745C85.65 42.4677 80.7167 38.031 74.95 34.6531C76.7 34.1825 78.5 33.796 78.9834 31.5609C81.9834 30.771 82.6 29.3593 82.9 27.8468C83.6834 27.3091 86.3 25.8134 86.0334 23.2253C87.5 22.1834 88.3167 20.8557 87.9 18.9735C89.4834 17.2089 89.9 15.7636 89.2167 14.4192C91.1167 12.016 90.2667 10.7556 89.4667 9.49517C90.8834 6.85669 89.6334 4.03336 85.6667 4.50392C84.1167 2.13433 80.6667 2.67211 80.1334 2.68892C79.5334 1.93267 78.75 1.27725 76.3334 1.59656C74.7667 0.168083 73.0167 0.403361 71.2167 1.10919C69.0667 -0.588167 67.65 0.773083 66.0334 1.29405C63.4334 0.436972 62.85 1.61336 61.5667 2.08392C58.7334 1.47892 57.8834 2.78975 56.5167 4.18461L54.9334 4.151C50.6667 6.68864 48.55 11.8479 47.8 14.5032C47.05 11.8479 44.9334 6.68864 40.6667 4.151L39.0834 4.18461C37.7334 2.80656 36.8667 1.47892 34.0334 2.08392C32.7667 1.61336 32.1667 0.436972 29.5667 1.29405C28.5 0.957944 27.5334 0.252111 26.3667 0.285722C25.7667 0.302527 25.1167 0.520999 24.3834 1.10919C22.5834 0.403361 20.8334 0.168083 19.2667 1.59656C16.85 1.27725 16.0667 1.93267 15.4667 2.68892C14.9334 2.67211 11.5 2.13433 9.91669 4.50392C5.95002 4.03336 4.70002 6.85669 6.11669 9.49517C5.33336 10.7556 4.50002 11.9992 6.38336 14.4192C5.71669 15.7636 6.13336 17.2089 7.70002 18.9735C7.28336 20.8557 8.10002 22.1834 9.56669 23.2253C9.30002 25.8134 11.9167 27.3091 12.7 27.8468C13 29.3425 13.6334 30.771 16.6167 31.5609C17.1167 33.796 18.9167 34.1825 20.65 34.6531C14.8834 38.031 9.95002 42.4677 9.98336 53.3745L9.13336 54.887C2.53336 58.9371 -3.41664 71.9614 5.88336 82.5321C6.48336 85.8428 7.50002 88.2292 8.41669 90.8509C9.76669 101.455 18.6167 106.43 20.95 107.018C24.3667 109.639 28.0167 112.144 32.9334 113.874C37.5834 118.698 42.6167 120.546 47.6667 120.546C47.7334 120.546 47.8167 120.546 47.8834 120.546C52.95 120.546 57.9834 118.714 62.6167 113.874C67.55 112.127 71.1834 109.639 74.6 107.018C76.9334 106.43 85.7834 101.455 87.1334 90.8509C88.0334 88.2124 89.05 85.8428 89.6667 82.5321C99.0167 71.9614 93.0667 58.9371 86.4667 54.887ZM80.5 53.0216C80.15 57.4078 57.8 37.7285 61.6667 37.0731C72.1334 35.2917 80.85 41.577 80.5 53.0216ZM55.9667 7.15919C56.1667 8.15072 56.3834 8.77253 56.6334 8.95739C57.8834 7.59614 58.8834 6.20128 60.4834 4.89044C60.4834 5.6635 60.1 6.50378 61.05 7.10878C61.9 5.93239 63.0667 4.87364 64.6 3.98294C63.8667 5.29378 64.4667 5.69711 64.8667 6.23489C66.05 5.20975 67.1667 4.151 69.3334 3.34433C68.7334 4.08378 67.9167 4.80642 68.7834 5.64669C70 4.87364 71.2167 4.10058 74.0834 3.546C73.4334 4.28544 72.1 5.02489 72.9 5.76433C74.4167 5.17614 76.1 4.73919 77.9667 4.48711C77.0834 5.24336 76.3334 5.966 77.0667 6.55419C78.7 6.05003 80.9334 5.34419 83.1167 5.94919L81.7334 7.37767C81.5834 7.56253 84.9834 7.52892 87.2167 7.56253C86.4 8.72211 85.5667 9.84808 85.0834 11.8479C85.3 12.0832 86.4167 11.9488 87.4667 11.8479C86.4 14.1671 84.5334 14.7385 84.1 15.73C84.75 16.2342 85.6667 16.0998 86.6667 15.7636C85.9 17.3938 84.2667 18.5198 82.9834 19.8306C83.3 20.0659 83.8667 20.2003 85.2167 20.0491C84.0334 21.3431 82.6 22.5195 80.9 23.5782C81.2 23.9311 82.2334 23.9143 83.1834 23.9479C81.65 25.4941 79.6667 26.2839 77.8167 27.2922C78.7334 27.9309 79.4 27.7796 80.1 27.7796C78.7834 28.8888 76.5667 29.4602 74.5 30.1156C74.9 30.7374 75.2834 30.9054 76.1334 31.0903C73.95 32.3339 70.8167 31.7625 69.9334 32.4011C70.15 33.0229 70.75 33.4263 71.4667 33.7624C67.95 33.9641 58.3 33.6279 56.4667 26.1663C60.0667 22.1161 66.65 17.3434 77.9834 11.4614C69.1667 14.4864 61.2167 18.5029 54.5667 24.032C46.75 20.2843 52.15 10.89 55.9667 7.15919ZM47.7667 34.0817C53.3167 34.0145 60.1834 38.2495 60.15 42.2492C60.1334 45.7784 55.3334 48.6185 47.8 48.5681C40.4334 48.4841 35.4834 44.9885 35.5 41.577C35.5167 38.7536 41.5167 33.9136 47.7667 34.0817ZM19.7334 31.0567C20.5667 30.8886 20.9667 30.7038 21.3667 30.082C19.3 29.4097 17.0667 28.8384 15.7667 27.746C16.4667 27.7628 17.1334 27.8972 18.05 27.2586C16.2 26.2503 14.2167 25.4604 12.6834 23.9143C13.6334 23.8975 14.6667 23.8975 14.9667 23.5446C13.2667 22.4859 11.8334 21.3095 10.65 20.0154C11.9834 20.1835 12.55 20.0323 12.8834 19.797C11.6 18.4693 9.98336 17.3602 9.20002 15.73C10.2 16.0829 11.1 16.2006 11.7667 15.6964C11.3334 14.7049 9.46669 14.1167 8.40002 11.8143C9.45002 11.9152 10.55 12.0496 10.7834 11.8143C10.3 9.81447 9.46669 8.6885 8.65002 7.52892C10.9 7.49531 14.2834 7.54572 14.1334 7.34406L12.75 5.91558C14.9334 5.32739 17.1834 6.01642 18.8 6.52058C19.5334 5.93239 18.7834 5.20975 17.9 4.4535C19.7667 4.70558 21.45 5.14253 22.9667 5.73072C23.7834 4.99128 22.4334 4.25183 21.7834 3.51239C24.65 4.06697 25.8834 4.84003 27.0834 5.61308C27.9667 4.756 27.1334 4.05017 26.5334 3.31072C28.7 4.11739 29.8167 5.15933 31 6.20128C31.4 5.6635 32.0167 5.26017 31.2667 3.94933C32.8 4.84003 33.9667 5.89878 34.8167 7.07517C35.7667 6.47017 35.3834 5.62989 35.3834 4.85683C36.9834 6.16767 38 7.56253 39.2334 8.92378C39.4834 8.73892 39.7 8.11711 39.9 7.12558C43.7167 10.8564 49.1 20.2675 41.2834 23.9816C34.6667 18.4861 26.7167 14.4528 17.9 11.4446C29.2167 17.3266 35.8 22.0993 39.4167 26.1495C37.5667 33.6111 27.9334 33.9473 24.4167 33.7456C25.1334 33.4095 25.7334 33.0061 25.95 32.3843C25.0667 31.7457 21.9334 32.3003 19.7334 31.0567ZM32.7334 36.7538C36.5834 37.4092 14.25 57.0885 13.9 52.7023C13.5334 41.2409 22.25 34.9556 32.7334 36.7538ZM9.26669 80.5995C3.83336 76.1964 2.08336 63.2898 12.15 57.4918C18.2167 55.8449 14.2 82.801 9.26669 80.5995ZM30.4334 103.674C27.3667 105.539 19.9334 104.766 14.65 97.1025C11.0834 90.6828 11.55 84.1286 14.05 82.2128C17.8 79.9105 23.5834 83.0195 28.0334 88.2292C31.9 92.9516 33.6667 101.237 30.4334 103.674ZM24.4167 75.5746C18.8 71.8606 17.7834 63.441 22.15 56.7692C26.5167 50.0974 34.6167 47.711 40.2334 51.4082C45.85 55.1223 46.8667 63.5418 42.5 70.2136C38.1334 76.8854 30.0334 79.2886 24.4167 75.5746ZM47.7834 116.815C41.05 117.101 34.4334 111.253 34.5334 109.219C34.4334 106.245 42.7334 103.926 48.15 104.06C53.6 103.825 60.9167 105.825 60.9334 108.497C61.0167 111.068 54.3 116.916 47.7834 116.815ZM48.1 100.06C40.6 100.06 34.5334 94.4136 34.5334 87.4393C34.5334 80.465 40.6 74.8184 48.1 74.8184C55.6 74.8184 61.6667 80.465 61.6667 87.4393C61.6667 94.4136 55.5834 100.06 48.1 100.06ZM53.15 69.5414C48.7834 62.8696 49.8 54.45 55.4167 50.736C61.0334 47.022 69.1334 49.4252 73.5 56.097C77.8667 62.7688 76.85 71.1884 71.2334 74.9024C65.6167 78.6164 57.5167 76.2132 53.15 69.5414ZM80.6167 97.4891C74.8167 105.606 66.95 105.925 64.0167 103.674C60.95 100.766 63.3 91.7248 67.4834 86.7671C72.2834 81.3053 77.4167 77.7257 81 80.5154C83.4334 82.9186 84.8334 92.0273 80.6167 97.4891ZM85.1667 80.2634C80.2334 82.4817 76.2167 55.5256 82.2834 57.1557C92.35 62.9536 90.6 75.8603 85.1667 80.2634Z" fill="currentColor"/>
</svg>
