<svg width="110" height="110" viewBox="0 0 110 110" fill="none" xmlns="http://www.w3.org/2000/svg">
<g clip-path="url(#clip0_2697_6954)" fill="currentColor">
<path fill-rule="evenodd" clip-rule="evenodd" d="M91.4265 72.7784C91.1601 73.8762 90.6829 75.206 90.0598 76.6742C89.6044 76.5796 89.1652 76.6617 88.9238 76.7068L88.9229 76.707C88.8466 76.7212 88.7901 76.7318 88.7593 76.7318C88.6194 76.7318 88.1221 77.509 87.6473 78.2507L87.6471 78.251C87.3456 78.7223 87.0531 79.1792 86.8674 79.4134C86.3681 80.0371 85.0171 81.1182 84.0607 81.7211C83.1041 82.324 82.356 82.6566 80.3185 82.5111C78.4858 82.3615 77.8306 81.7915 77.2484 81.2851L77.2476 81.2844C77.2151 81.2561 77.1827 81.228 77.1504 81.2001C77.1184 81.1725 77.0864 81.1452 77.0542 81.1182C77.0069 81.077 76.9596 81.0364 76.9126 80.9961L76.9122 80.9958L76.9118 80.9955C76.319 80.4875 75.7744 80.0208 75.89 78.7689C75.9062 78.6189 75.9226 78.4737 75.9384 78.3336C76.0655 77.2116 76.1557 76.4148 75.7863 76.0451C75.5121 75.771 75.1723 75.6363 74.6279 75.574C74.7214 75.3256 74.8676 75.054 75.1006 74.6739C75.6051 73.9084 75.5855 72.5168 75.5657 71.1086C75.5618 70.834 75.5579 70.5588 75.5579 70.2875C75.5579 65.9628 75.0587 61.5557 74.0608 58.3124C73.4606 56.321 72.6278 54.7233 71.7737 53.0849C71.326 52.2261 70.8725 51.356 70.4436 50.4122C69.3186 47.947 68.7263 46.0945 68.2111 44.4833C67.5836 42.521 67.0706 40.9165 65.849 38.9985C64.8878 37.47 64.47 36.1355 64.1385 35.0767C63.895 34.2991 63.6981 33.6701 63.3666 33.222C63.7653 32.4824 63.9708 31.5316 64.05 30.2846C64.1252 29.1714 63.4224 28.4791 62.3788 27.9708C63.2193 27.3557 63.6761 26.4864 63.9773 25.3596C64.4766 23.4885 64.4974 21.4095 63.1044 18.9771C61.7947 16.6489 61.0462 16.2744 59.154 16.1289C56.2437 15.8794 54.8713 17.9168 54.2271 19.3721C53.6586 20.6813 53.6611 20.7487 53.7021 21.8687C53.7106 22.1004 53.7208 22.3772 53.7278 22.7193C53.7443 23.5438 53.9368 24.1348 54.2086 24.6278C53.2311 24.3562 52.053 24.2504 51.0984 24.3681C50.8178 24.4004 50.5639 24.4162 50.3234 24.4312C49.8739 24.4592 49.4716 24.4842 49.0313 24.6088C49.2668 24.0109 49.4141 23.3247 49.4035 22.2411C49.4035 20.3234 48.8551 19.5732 48.0031 18.4076C47.9314 18.3096 47.8577 18.2087 47.7819 18.1039C46.8463 16.815 45.3495 16.7526 44.4139 16.9189C43.8734 17.0021 43.1668 17.6881 42.6883 18.7068C42.3765 19.3929 42.127 20.2661 42.1059 21.1809C42.0436 23.6341 42.2518 24.5696 42.8128 26.2328C43.0905 27.0485 43.5348 27.7012 44.0458 28.1501C44.0126 28.1775 43.9798 28.2047 43.9472 28.2317C42.6771 29.2826 41.8525 29.9649 41.8896 31.4835C41.8972 32.2837 42.2083 32.9907 42.6918 33.6421C42.6047 33.7607 42.5531 33.9668 42.5428 34.2786C42.4952 35.8009 42.5225 36.4387 42.5546 37.1885C42.5785 37.7494 42.6052 38.3728 42.6052 39.4761C42.6052 40.6214 42.2572 41.0615 41.5246 41.9878C41.1535 42.4571 40.6837 43.0512 40.1104 43.9251C39.2372 45.2973 38.5511 46.7734 38.0106 48.2703C37.6779 49.1642 37.3661 50.0998 37.1166 51.0145C37.0646 51.2432 36.9919 51.4771 36.9191 51.711C36.8463 51.9449 36.7736 52.1788 36.7216 52.4075C36.3121 53.9157 35.3987 55.5918 34.4818 57.2746C33.4901 59.0944 32.4943 60.9219 32.127 62.553C31.9743 63.2265 31.8159 63.8477 31.6622 64.4498C31.1046 66.6355 30.611 68.5699 30.6925 71.8464C30.7726 75.0662 30.8157 75.0891 31.4113 75.4057C31.5887 75.4999 31.8152 75.6203 32.1062 75.8589C32.494 76.1822 32.8858 76.4993 33.301 76.8354L33.3014 76.8357L33.3017 76.8359C34.2219 77.5807 35.2569 78.4185 36.6177 79.6219C37.3533 80.2619 38.3702 81.0712 39.403 81.8931C41.2887 83.3938 43.2272 84.9365 43.6031 85.5678C44.2268 86.5658 44.206 88.8111 43.8318 89.5387C43.4805 90.2023 40.5821 90.5911 40.246 90.6362C40.2241 90.6391 40.2131 90.6406 40.2143 90.6406C40.1938 90.6406 43.0626 94.5907 43.6242 95.1517C43.6353 95.1629 43.6471 95.1748 43.6598 95.1876L43.6611 95.1889C44.2668 95.8009 46.6944 98.2538 55.9735 96.5239C61.3165 95.5263 65.4537 92.5325 68.4475 89.6424C69.0999 89.0076 69.5866 88.4491 69.9474 87.9501C69.9242 88.3245 69.8959 88.6886 69.8611 89.0389C69.6312 91.3898 69.2808 93.2739 68.9699 94.9458C68.6347 96.7484 68.3453 98.3045 68.3022 99.9332C68.2582 101.27 68.4225 102.421 68.6992 103.366C62.9336 101.865 60.7547 102 55.2539 102.341C54.7125 102.374 54.1389 102.41 53.5265 102.446C51.8551 102.545 50.6688 102.585 49.7716 102.615H49.7714C48.5058 102.658 47.8158 102.681 47.1515 102.824C46.3552 102.994 45.5957 103.337 43.9261 104.089L43.6513 104.213C43.4753 104.292 43.2826 104.327 43.0747 104.319C43.21 104.213 43.3369 104.117 43.4557 104.027C44.6106 103.153 45.0038 102.855 44.9544 99.746C44.9131 97.1546 43.7931 95.7696 42.2127 93.8152C41.4097 92.8222 40.4879 91.6822 39.5282 90.1621C37.973 87.6988 37.1307 86.3326 36.3783 85.1124L36.3781 85.112C35.7527 84.0977 35.1895 83.1842 34.3307 81.8253C32.4388 78.8732 28.6966 73.5093 26.5552 73.4467C25.1108 73.4114 24.2037 74.0628 23.3154 74.9203C23.2017 74.468 23.0954 74.0676 22.9998 73.7071C22.1927 70.6658 22.141 70.4708 24.7531 65.98C26.1174 63.635 26.9566 61.3025 27.8314 58.8712C28.9032 55.8925 30.0283 52.7655 32.2375 49.2856C33.5676 47.1838 34.9661 45.4246 36.2295 43.8354C38.7776 40.6302 40.7759 38.1166 40.5536 34.8782C40.4966 34.0955 40.4401 33.3299 40.3848 32.5809C39.1707 16.1222 38.5517 7.73254 46.1879 3.7555C53.7971 -0.194607 60.1588 2.15467 62.6744 3.50602C62.7286 3.53517 62.7855 3.56568 62.8451 3.59758C63.9748 4.20273 66.0415 5.30973 67.6017 7.18585C69.2441 9.11932 70.7202 12.0507 71.5518 15.7513C72.3766 19.3426 72.2378 20.6218 72.0937 21.9489C71.94 23.3645 71.7804 24.8345 72.7784 29.2233C74.375 36.3036 77.3478 40.371 81.0439 45.4279L81.0443 45.4284L81.0455 45.4301C81.7767 46.4305 82.5362 47.4696 83.3189 48.5785C88.0585 55.294 93.0065 66.375 91.4265 72.7784ZM60.5978 6.79012C60.2981 7.37917 59.9975 9.06258 60.5894 8.73716C60.7869 8.62808 61.0456 8.52786 61.3071 8.42654C61.798 8.2363 62.299 8.04217 62.4241 7.77822C62.5344 7.1499 60.9322 6.10001 60.5978 6.79012ZM47.4097 15.9871C47.2762 16.1132 47.4697 16.2543 47.7641 16.4689C47.8728 16.5481 47.9952 16.6374 48.12 16.7396C48.3229 16.9064 48.4517 17.0946 48.5545 17.2448C48.697 17.4532 48.7895 17.5884 48.9603 17.4921C49.2441 17.335 48.8237 16.8268 48.5575 16.5123C48.2052 16.0841 47.5983 15.8254 47.4097 15.9871ZM60.9942 15.1569C60.9804 15.2719 61.2238 15.365 61.4564 15.4541C61.5248 15.4803 61.5923 15.5061 61.652 15.532C61.9156 15.6363 62.4227 16.0319 62.6566 16.3151C62.6728 16.3354 62.6909 16.3584 62.7104 16.3834L62.7534 16.4383L62.7535 16.4385C63.0158 16.7744 63.4724 17.3594 63.5786 17.197C63.69 17.0226 63.4351 16.5051 63.1451 16.2143C62.8731 15.9242 62.5679 15.6051 62.0537 15.3273C61.6425 15.1027 61.0107 15.038 60.9942 15.1569ZM29.7826 72.5894C28.494 70.6351 28.5511 67.922 28.6811 66.2273C28.7486 65.8638 28.1717 66.02 28.0831 66.2328C27.9846 66.6434 27.7195 68.421 27.9063 69.3929C28.1922 70.8846 28.556 72.1112 29.3824 73.0883C30.1933 74.0756 31.0716 74.5384 29.7826 72.5894ZM29.9796 61.7168C31.0289 58.6632 31.518 57.7182 32.2174 56.3841C32.9133 55.0536 32.9707 54.071 32.4623 54.7172C31.844 55.507 30.8399 57.7078 30.4517 58.5587L30.3864 58.7016C30.3864 58.7016 29.6582 60.26 29.5574 61.331C29.5332 61.7061 29.8595 62.0503 29.9796 61.7168ZM73.9829 51.6186C73.6407 51.0778 76.3437 51.9039 78.0829 54.0253C78.3485 54.3502 77.8868 54.7328 77.59 54.4229C76.0051 52.7941 74.278 51.7903 74.0151 51.6375C74.0041 51.6311 73.9957 51.6262 73.9899 51.6228L73.9851 51.6199L73.9829 51.6186ZM81.3304 58.5654C82.199 60.111 82.4259 63.3393 81.9997 64.5084C81.9021 64.7729 81.3691 64.2483 81.3723 63.881C81.5222 60.8176 80.3117 58.4814 79.9341 57.7527L79.934 57.7524L79.9338 57.7521C79.8644 57.6182 79.8233 57.5388 79.824 57.5192C79.807 57.4566 80.1653 56.9891 80.4099 57.0451C80.5815 57.0882 80.7702 57.4682 80.9935 57.9177C81.0977 58.1275 81.2094 58.3524 81.3304 58.5654ZM83.0776 73.5C82.5323 73.4235 82.115 73.3649 82.0803 73.1571C82.0369 72.9544 82.4802 72.8727 83.1977 72.9399C83.9478 73.0221 84.5533 73.2464 85.353 73.5427L85.3536 73.5429L85.3539 73.543L85.3559 73.5437C85.4635 73.5836 85.5745 73.6247 85.6899 73.667C86.9757 74.1359 87.5746 74.6225 87.6471 75.2063C87.708 75.69 87.4516 75.9646 87.0624 75.9412C86.8622 75.9093 86.8622 75.8436 86.8622 75.7168C86.8622 75.5596 86.8622 75.3088 86.4814 74.9127C85.7127 74.1557 85.3289 74.0421 84.2771 73.7307L84.2522 73.7233C83.8537 73.6089 83.4377 73.5505 83.0776 73.5ZM79.6323 73.5717C78.3849 73.5717 77.6879 74.1705 77.2412 74.5542L77.241 74.5544C77.1933 74.5953 77.1484 74.634 77.106 74.669C77.086 74.6934 77.0662 74.7173 77.0467 74.7407L77.0465 74.7409C77.0325 74.7584 77.0187 74.7757 77.005 74.7928C76.9828 74.8204 76.9609 74.8473 76.9391 74.8733C76.9085 74.9125 76.8783 74.9506 76.8483 74.9866C76.8158 75.029 76.7835 75.0699 76.7515 75.1082C76.7219 75.147 76.6924 75.1845 76.6631 75.2195C76.6343 75.2576 76.6056 75.2942 76.577 75.3285C76.5489 75.366 76.5208 75.402 76.4928 75.4358C76.2763 75.7262 76.0609 75.9257 75.8277 75.6926C75.5782 75.4428 76.119 74.6528 76.5966 74.0912C77.0959 73.5093 77.9275 72.8646 79.1749 72.6982C79.3659 72.6696 79.5373 72.6444 79.691 72.6241C79.6745 72.3058 79.8675 71.7825 80.1289 71.0736L80.1291 71.0733C80.326 70.5393 80.5617 69.9001 80.776 69.1639C80.9343 68.6039 81.071 67.5663 81.1739 66.7858C81.2467 66.2335 81.3026 65.8099 81.337 65.7755C81.6073 65.5052 82.2726 66.2744 82.2726 66.7107C82.306 68.1663 81.2088 71.4388 80.4431 72.5753C80.7339 72.5998 80.8577 72.7181 80.8794 72.9893C80.8834 73.0243 80.8876 73.0572 80.8916 73.0882L80.8917 73.0891C80.9489 73.5354 80.9535 73.5717 79.6323 73.5717ZM51.5648 22.415C51.8714 22.3569 52.2324 22.3939 52.8032 22.6607C53.1953 22.853 53.0279 22.9633 52.4478 22.8412C52.088 22.7658 52.0586 22.7611 51.9729 22.7474C51.9272 22.7401 51.8654 22.7302 51.7291 22.7057C51.0725 22.5969 50.9575 22.525 51.5648 22.415Z" />
<path d="M49.1552 50.0692C49.2727 50.0822 49.6349 50.0242 50.0292 49.961C50.6109 49.8678 51.2625 49.7633 51.3012 49.8595C51.3306 49.9184 51.101 50.0244 50.8059 50.1606C50.4548 50.3227 50.0112 50.5276 49.8008 50.7466C49.6718 50.8756 49.3328 51.1823 49.1231 51.15C49.0301 51.1407 48.9586 51.0246 48.8686 50.8785C48.8021 50.7707 48.7256 50.6465 48.623 50.5369C48.3466 50.2605 48.1176 50.1266 47.9658 50.0378C47.7987 49.9401 47.7251 49.897 47.7842 49.7787C47.8391 49.6777 48.114 49.7702 48.4328 49.8776C48.6738 49.9587 48.9399 50.0483 49.1552 50.0692Z" />
<path d="M47.3227 67.0781C47.4812 64.535 47.5953 62.7037 47.075 62.6777C46.2434 62.6362 45.5158 68.1039 45.5161 72.9064C45.5161 77.7089 46.5559 79.8708 47.1585 79.2679C47.4977 78.9285 47.4419 78.2466 47.3282 76.8589C47.24 75.7812 47.1169 74.2778 47.1169 72.1785C47.1169 70.3796 47.2278 68.6012 47.3227 67.0781Z" />
<path d="M62.0236 50.5733C62.1801 50.0331 66.1617 49.9052 67.1287 50.0614C68.0958 50.2179 71.7646 54.7824 71.0107 55.0813C70.6539 55.2227 70.1982 54.7647 69.5622 54.1256C68.8549 53.4148 67.9246 52.4799 66.6592 51.8958C65.3618 51.297 64.0685 51.1169 63.1776 50.9928C62.4185 50.887 61.9516 50.822 62.0236 50.5733Z" />
<g clip-path="url(#clip1_2697_6954)" fill="none">
<path d="M90.4045 77.8612L90.4033 77.8593C90.2156 77.5854 89.9733 77.4997 89.685 77.4868C89.533 77.4801 89.3813 77.4959 89.2411 77.5185C89.2093 77.5236 89.1801 77.5287 89.1516 77.5338C89.1423 77.546 89.1325 77.5592 89.122 77.5734C88.9886 77.7542 88.8169 78.0128 88.6245 78.3104C88.5491 78.4271 88.4693 78.5518 88.3879 78.6792C88.0823 79.1569 87.7526 79.6724 87.5369 79.9445L87.5345 79.9475C87.2252 80.3338 86.7034 80.8071 86.1753 81.2375C85.6346 81.6782 85.0296 82.1205 84.5164 82.4441L84.5163 82.4441C84.0107 82.7628 83.4941 83.0529 82.8021 83.2259C82.1203 83.3964 81.3247 83.4398 80.2575 83.3636L80.2488 83.363L80.2488 83.3629C79.1379 83.2723 78.3629 83.0342 77.7573 82.7068C77.2807 82.4492 76.9212 82.1351 76.6612 81.908C76.6044 81.8584 76.5523 81.8129 76.5048 81.773L76.4986 81.7678L76.4925 81.7625C76.4557 81.7304 76.4153 81.6961 76.3723 81.6595C76.1042 81.4314 75.7333 81.1158 75.4667 80.7054C75.1205 80.1722 74.9615 79.527 75.0387 78.6903L75.0399 78.6772L75.04 78.6772C75.0581 78.5096 75.0758 78.3533 75.0923 78.2069C75.1465 77.7272 75.1886 77.3547 75.1939 77.0416C75.1986 76.7625 75.1677 76.6544 75.1597 76.6282C75.0094 76.4899 74.744 76.3803 73.4161 76.3803C72.7317 76.3803 72.4503 76.3955 72.2078 76.4604C71.9856 76.5199 71.7498 76.6345 71.2381 76.9539C71.2208 76.9915 71.1966 77.0545 71.1698 77.1509C71.0992 77.4054 71.041 77.7795 70.9984 78.2752C70.9137 79.2615 70.9028 80.5706 70.9028 82.0326C70.9028 82.227 70.9029 82.424 70.9031 82.6231C70.9048 84.7669 70.9068 87.1534 70.7116 89.1226C70.4779 91.5107 70.1218 93.4258 69.811 95.0968C69.7985 95.1639 69.7861 95.2306 69.7738 95.297C69.4528 97.0251 69.1959 98.4634 69.1564 99.9558L69.1563 99.9612C69.0579 102.951 70.0703 104.787 70.7754 105.4L70.7836 105.407L70.7836 105.408C71.5322 106.075 72.6935 106.688 75.6614 106.688C77.1497 106.688 78.2954 106.522 79.2906 106.145C80.2787 105.771 81.1723 105.168 82.1256 104.214L82.1257 104.214C83.4848 102.856 84.9231 101.596 88.9827 98.8127L88.9844 98.8114C90.5484 97.745 92.4832 96.6353 94.1505 95.679C94.2252 95.6361 94.2994 95.5936 94.373 95.5513C95.2383 95.0548 96.0188 94.605 96.6418 94.2207C97.2913 93.8201 97.6854 93.5405 97.8427 93.3833C97.8428 93.3832 97.8428 93.3832 97.8429 93.3831L98.4472 93.9875C98.5199 93.9147 98.6013 93.8425 98.6872 93.7662C99.1661 93.3408 99.787 92.7894 99.8399 91.326L90.4045 77.8612ZM90.4045 77.8612C90.8672 78.5326 90.8894 79.3321 90.8343 80.3714C90.8304 80.4446 90.8261 80.5199 90.8217 80.5967C90.7972 81.0254 90.77 81.5028 90.7958 81.9512C90.8271 82.4938 90.938 83.0867 91.2776 83.63L91.2782 83.631C92.1064 84.9517 93.3292 86.2437 94.4714 87.2793C95.6068 88.3088 96.7224 89.1385 97.3867 89.5247C97.5207 89.6062 97.6447 89.6783 97.7606 89.7455C98.0874 89.9354 98.3487 90.0871 98.5811 90.306C98.8322 90.5425 98.998 90.8201 98.9856 91.299L90.4045 77.8612ZM71.2583 76.9157C71.2583 76.9157 71.2576 76.9169 71.2562 76.9189C71.2576 76.9166 71.2583 76.9156 71.2583 76.9157ZM89.2539 77.4084C89.2539 77.4085 89.2531 77.4093 89.2517 77.4107C89.2532 77.4091 89.2539 77.4084 89.2539 77.4084Z" stroke="currentColor" stroke-width="1.7094"/>
<path d="M19.0927 81.2711L19.0927 81.2711C20.1541 80.5044 21.0186 79.3752 21.7168 78.3789C21.8941 78.1258 22.0644 77.8758 22.2256 77.6387L22.2485 77.6051C22.4024 77.3788 22.5471 77.1659 22.6868 76.9662C22.9859 76.5388 23.2321 76.2154 23.4437 75.9996C24.5073 74.9149 25.23 74.2702 26.5314 74.3011C26.7649 74.3087 27.2085 74.4907 27.8657 75.0285C28.4883 75.5381 29.1769 76.2613 29.881 77.1014C31.2854 78.7771 32.6704 80.8194 33.6092 82.2843C34.4645 83.6378 35.0252 84.5472 35.6502 85.5607C35.7136 85.6636 35.7778 85.7676 35.8429 85.8733C36.5509 87.0211 37.3789 88.3595 38.805 90.6184C39.7894 92.1775 40.7769 93.4002 41.5946 94.4126C41.9707 94.8782 42.3108 95.2993 42.5982 95.6882C43.5244 96.9417 44.0719 98.0402 44.0994 99.7597C44.131 101.751 43.9602 102.318 43.7371 102.636C43.6186 102.805 43.4491 102.957 43.1102 103.216C43.0581 103.256 43.0028 103.298 42.9444 103.342C42.6395 103.572 42.2518 103.866 41.8072 104.264C41.5245 104.515 41.2777 104.741 41.0544 104.946C40.4178 105.529 39.9721 105.938 39.4297 106.239C38.7789 106.601 37.9579 106.807 36.4137 106.69C34.9086 106.567 32.9789 105.854 30.6414 104.968C30.5815 104.946 30.5214 104.923 30.461 104.9C28.221 104.051 25.6863 103.09 23.0697 102.548C18.1722 101.525 15.3666 100.917 13.6461 100.351C12.7942 100.071 12.2649 99.8179 11.9003 99.564C11.5551 99.3235 11.3285 99.0619 11.1158 98.7083C10.7276 98.0396 10.8104 97.3976 11.1128 95.9503L11.1145 95.9421L11.1161 95.934C11.1393 95.811 11.1641 95.6831 11.19 95.5502C11.3907 94.5181 11.6504 93.182 11.6507 91.4949C11.6591 89.7525 11.462 88.3077 11.3058 87.1623C11.2657 86.8681 11.2282 86.5937 11.1977 86.3391C11.0405 85.0296 11.0917 84.3896 11.4566 83.9006C11.6052 83.7077 11.9327 83.4895 12.5317 83.2738C13.1136 83.0643 13.8248 82.8999 14.6128 82.7316C14.736 82.7053 14.8613 82.6789 14.9878 82.6522C15.6479 82.5129 16.3439 82.366 16.9812 82.1878C17.7326 81.9778 18.499 81.6999 19.0927 81.2711Z" stroke="currentColor" stroke-width="1.7094"/>
</g>
<g clip-path="url(#clip2_2697_6954)">
<path fill-rule="evenodd" clip-rule="evenodd" d="M46.9291 21.2435C46.5552 20.6822 45.7651 20.2664 45.1414 20.2664C44.4762 20.2664 43.998 20.5366 43.6238 21.1187C43.1729 21.7777 43.1994 22.5089 43.2205 23.0953C43.2248 23.212 43.2288 23.3229 43.2288 23.4264C43.2288 24.4244 43.9148 25.6302 44.1435 25.8797C44.3406 26.0829 44.4848 26.2661 44.6085 26.4233C44.9023 26.7966 45.0806 27.0231 45.578 27.0231C45.8899 27.0231 46.4304 26.8984 46.6799 26.7528C47.4696 26.2955 47.6152 24.8194 47.6152 23.4888C47.6152 22.5948 47.3241 21.8048 46.9291 21.2435ZM46.462 22.13C46.1972 21.5507 45.4689 21.4185 45.287 21.6997C45.1203 21.9577 45.3009 22.2157 45.6504 22.7152C45.6823 22.7608 45.7156 22.8084 45.7502 22.8582C45.9158 23.1098 45.9913 23.3722 46.053 23.5868C46.1455 23.9082 46.2071 24.1225 46.4949 24.0331C46.6768 23.967 46.7267 22.7092 46.462 22.13Z" />
</g>
<g clip-path="url(#clip3_2697_6954)">
<path fill-rule="evenodd" clip-rule="evenodd" d="M61.7319 23.3641C61.42 21.5762 60.5053 20.1832 58.946 20.1832C58.2807 20.1832 57.4907 20.2869 57.0544 20.7653C56.4723 21.4098 56.1396 22.2206 56.1396 23.3641C56.1396 24.3828 56.2436 25.8173 56.701 26.4618C57.0931 26.9969 57.7915 26.9811 58.4678 26.9658C58.5798 26.9633 58.6912 26.9608 58.8005 26.9608C59.6113 26.9608 60.6092 26.5034 61.1705 25.755C61.6695 25.1105 61.8566 24.1749 61.7319 23.3641ZM60.1871 21.5944C59.8063 21.1635 59.4416 20.9978 59.2761 21.1635C58.9989 21.4265 59.1736 21.5974 59.4516 21.8692C59.506 21.9224 59.5643 21.9795 59.6241 22.0419C59.6906 22.1188 59.7493 22.2354 59.8079 22.3519C59.9387 22.6117 60.0692 22.8711 60.2867 22.6878C60.6179 22.4228 60.6015 22.0584 60.1871 21.5944Z" />
</g>
<g clip-path="url(#clip4_2697_6954)">
<path fill="none" d="M51.1956 25.2172L51.1956 25.2172L51.2023 25.2164C51.8534 25.1362 52.6567 25.1748 53.4097 25.3189C54.1798 25.4661 54.789 25.7029 55.1155 25.9439C56.049 26.6383 56.7506 27.044 57.67 27.3497L57.6731 27.3507C58.2028 27.5247 58.7698 27.6828 59.3142 27.8346C59.4877 27.883 59.659 27.9308 59.826 27.9782C60.5358 28.1798 61.1838 28.3791 61.7335 28.6157C62.2894 28.855 62.6737 29.1034 62.9072 29.3649C63.115 29.5977 63.2215 29.8576 63.1966 30.2271L63.1964 30.2304C63.1075 31.629 62.8583 32.4961 62.4459 33.0904C62.0485 33.6629 61.4212 34.0933 60.3177 34.4419C59.7186 34.6272 59.0565 35.0004 58.4155 35.3966C58.0889 35.5984 57.7062 35.8464 57.3202 36.0964C56.9861 36.3129 56.6496 36.5309 56.3451 36.7219C55.6319 37.1691 54.9262 37.5787 54.2495 37.8766C53.567 38.1771 52.9688 38.3389 52.4626 38.3416L52.4608 38.3416C52.3335 38.3426 52.2038 38.3441 52.0726 38.3455C51.5573 38.3513 51.0168 38.3573 50.4919 38.3359C49.8202 38.3085 49.2756 38.2381 48.9204 38.1101L48.9167 38.1088C48.8115 38.0714 48.6403 37.9755 48.3888 37.7811C48.1451 37.5927 47.8711 37.3478 47.5586 37.0552C47.4108 36.9168 47.2544 36.7676 47.0908 36.6116C46.5846 36.1286 46.0101 35.5805 45.4114 35.0872L45.4114 35.0872L45.4064 35.0831C44.6422 34.4632 43.9684 33.8814 43.481 33.2676C43.0022 32.6648 42.7494 32.0881 42.7436 31.4754L42.7437 31.4754L42.7433 31.4626C42.7271 30.8005 42.9151 30.3979 43.2889 29.9752C43.4952 29.7419 43.7593 29.5032 44.1006 29.2155C44.2153 29.1188 44.3424 29.0136 44.4775 28.9017C44.7235 28.6982 44.9964 28.4723 45.2705 28.2349L45.2705 28.2349L45.2764 28.2297C46.1692 27.4418 47.688 26.187 48.7011 25.6537C49.2925 25.3555 49.6567 25.3329 50.2598 25.2954C50.5164 25.2795 50.8164 25.2609 51.1956 25.2172Z" stroke="currentColor" stroke-width="1.7094"/>
<path fill-rule="evenodd" clip-rule="evenodd" d="M52.5561 27.3026C52.7368 27.6763 53.2006 27.7279 53.5101 27.8954C53.8067 28.0632 53.9738 28.1016 54.0902 28.0372C54.3481 27.8954 54.1549 27.4314 53.897 27.2639C53.6516 27.0965 52.453 27.0575 52.5561 27.3026Z" />
<path fill-rule="evenodd" clip-rule="evenodd" d="M47.832 27.9382C47.7711 28.0912 48.2002 28.3829 48.415 28.1836C48.6452 27.9844 48.9212 27.8002 49.0133 27.739C49.4274 27.4626 49.2738 27.2637 48.5839 27.3864C47.8941 27.5091 47.8935 27.7849 47.832 27.9382Z" />
<path fill-rule="evenodd" clip-rule="evenodd" d="M43.04 33.0551C43.4206 33.1059 44.1312 33.6549 44.975 34.2217C46.2261 35.1812 48.0631 35.5537 49.3882 35.6415C52.5521 36.0093 57.9944 33.0722 59.0209 32.2536C60.2215 31.3786 61.5943 30.2727 62.1414 30.1722C62.3996 30.5453 61.7002 30.597 60.7269 31.4092C59.6683 32.1109 59.122 32.555 57.6771 33.3716C56.0254 34.2358 53.0348 35.9155 49.4777 35.8843C47.5168 35.6611 46.5163 35.4142 45.8487 35.0183C44.9002 34.4319 43.6591 33.7663 43.04 33.0551H43.04Z" />
</g>
</g>

</svg>
