<svg xmlns="http://www.w3.org/2000/svg" width="25" viewBox="0 0 848 528" height="25" xmlns:v="https://vecta.io/nano">
<path d="M230.674 96.306l-32.953-44.144c2.021-2.059 3.949-1.48 5.672-1.481l125.493-.104c4.055-.012 6.685 1.161 9.168 4.498l107.96 144.582c1.276 1.706 2.254 3.713 4.248 4.798 2.13-.142 3.146-1.808 4.351-3.111L590.63 54.133c2.189-2.373 4.404-3.603 7.742-3.554l35.23.068c.896 2.42-.723 3.189-1.666 4.206L525.149 169.857l-52.209 56.55c-3.098 3.304-2.928 5.466-.393 8.841l90.144 120.453 91.051 121.659c.692.924 1.5 1.776 1.392 3.073-1.608 1.541-3.532.877-5.254.879-41.664.037-83.329-.047-124.992.118-4.506.018-7.295-1.435-9.951-5.001L398.247 320.253c-1.662-2.22-2.957-4.83-5.933-6.575l-17.353 18.458-69.85 75.65-64.334 69.851c-2.323 2.537-4.648 3.828-8.159 3.775l-34.824-.066c-.931-2.769 1.024-3.742 2.161-4.972l76.071-82.15 94.095-101.567c3.043-3.268 3.471-5.447.649-9.193L274.24 154.676l-43.566-58.37m239.057 268.483l61.32 82.064c1.951 2.622 3.974 4.021 7.411 3.991l50.984-.101c1.523-.005 3.355.679 4.731-1.305-.861-1.328-1.679-2.761-2.66-4.074L512.226 339.29l-91.601-122.458-98.832-132.016c-1.733-2.318-3.575-3.58-6.615-3.562l-52.983.067c-.918.002-2.033-.353-3.263 1.527l210.8 281.939z"/>
</svg>