<svg width="500" height="111" viewBox="0 0 500 111" fill="none" xmlns="http://www.w3.org/2000/svg">
<g clip-path="url(#clip0)">
<path d="M38.4098 0H0V55.5H38.4098V0Z" fill="#F1F1F1" stroke="#F1F1F1"/>
<path d="M19.336 13.858V43.03H22.196V13.858H33.064V11.262H8.38V13.858H19.336Z" fill="black"/>
<path d="M58.2095 0H38.4098V55.5H58.2095V0Z" fill="#F1F1F1" stroke="#F1F1F1"/>
<path d="M46.5717 43.03H49.2997V11.262H46.5717V43.03Z" fill="black"/>
<path d="M100.317 0H58.2095V55.5H100.317V0Z" fill="#F1F1F1" stroke="#F1F1F1"/>
<path d="M79.0873 43.954C87.2713 43.954 93.1673 37.574 93.1673 26.97C93.1673 17.158 87.5353 10.338 79.0873 10.338C70.6833 10.338 65.0073 17.158 65.0073 27.014C65.0073 37.53 70.9033 43.954 79.0873 43.954ZM79.0873 12.846C86.2593 12.846 90.2633 19.006 90.2633 26.97C90.2633 36.21 85.6433 41.358 79.0873 41.358C72.5313 41.358 67.9113 36.21 67.9113 27.014C67.9113 19.05 71.9593 12.846 79.0873 12.846Z" fill="black"/>
<path d="M140.753 0H100.317V55.5H140.753V0Z" fill="#F1F1F1" stroke="#F1F1F1"/>
<path d="M131.579 43.03V11.262H128.895V40.39L113.099 11.262H108.435V43.03H111.163L111.119 13.33L127.223 43.03H131.579Z" fill="black"/>
<path d="M177.141 0H140.753V55.5H177.141V0Z" fill="#F1F1F1" stroke="#F1F1F1"/>
<path d="M165.283 34.67L167.835 43.03H170.783L160.971 11.262H157.011L146.671 43.03H149.575L152.215 34.67H165.283ZM164.667 32.118H152.963L158.991 13.462L164.667 32.118Z" fill="black"/>
<path d="M218.388 0H177.141V55.5H218.388V0Z" fill="#F1F1F1" stroke="#F1F1F1"/>
<path d="M188.074 11.262H185.258V43.03H205.498V40.39H188.074V11.262Z" fill="black"/>
<path d="M265.884 0H218.388V55.5H265.884V0Z" fill="#C60C30" stroke="#C60C30"/>
<path d="M258.822 27.014C258.822 16.63 252.794 11.262 244.83 11.262H234.006V43.03H244.478C253.542 43.03 258.822 37.002 258.822 27.014ZM255.918 27.014C255.918 34.934 252.398 40.39 245.094 40.39H236.822V13.858H245.446C251.826 13.858 255.918 18.83 255.918 27.014Z" fill="white"/>
<path d="M303.899 0H265.884V55.5H303.899V0Z" fill="#C60C30" stroke="#C60C30"/>
<path d="M274.002 43.03H295.694V40.39H276.818V28.29H292.042V25.694H276.818V13.858H295.21V11.262H274.002V43.03Z" fill="white"/>
<path d="M341.783 0H303.9V55.5H341.783V0Z" fill="#C60C30" stroke="#C60C30"/>
<path d="M319.673 27.234C321.961 27.938 324.117 28.554 326.361 29.126C330.453 30.138 332.301 32.074 332.301 34.934C332.301 38.63 328.869 41.05 323.677 41.05C316.769 41.05 314.305 36.166 313.381 33.878L310.741 35.462C313.205 41.666 319.145 43.778 323.677 43.778C330.365 43.778 335.337 40.214 335.337 34.714C335.337 29.742 331.113 27.322 327.109 26.31C324.821 25.738 322.709 25.166 320.597 24.506C316.241 23.142 314.525 21.426 314.525 18.786C314.525 15.398 317.605 13.11 322.445 13.11C327.197 13.11 330.673 16.454 331.949 19.006L334.413 17.026C331.597 13.198 327.637 10.514 322.445 10.514C316.109 10.514 311.665 13.726 311.665 18.874C311.665 23.494 315.801 26.002 319.673 27.234Z" fill="white"/>
<path d="M361.583 0H341.783V55.5H361.583V0Z" fill="#C60C30" stroke="#C60C30"/>
<path d="M349.945 43.03H352.673V11.262H349.945V43.03Z" fill="white"/>
<path d="M403.338 0H361.583V55.5H403.338V0Z" fill="#C60C30" stroke="#C60C30"/>
<path d="M392.537 33.262C391.437 38.674 387.521 41.314 382.549 41.314C375.685 41.314 371.285 35.55 371.285 27.146C371.285 18.742 375.553 12.846 382.857 12.846C387.565 12.846 391.085 16.014 392.537 19.798L395.133 18.17C392.933 13.374 388.445 10.338 382.901 10.338C374.409 10.338 368.381 16.938 368.381 27.19C368.381 37.266 373.925 43.954 382.549 43.954C387.477 43.954 391.217 41.358 393.021 37.002L393.505 43.03H395.397V26.75H378.721L380.173 29.302H392.537V33.262Z" fill="white"/>
<path d="M451.274 0H403.339V55.5H451.274V0Z" fill="#C60C30" stroke="#C60C30"/>
<path d="M434.6 43.03V11.262H431.916V40.39L416.12 11.262H411.456V43.03H414.184L414.14 13.33L430.244 43.03H434.6Z" fill="white"/>
<path d="M500 0H451.274V55.5H500V0Z" fill="#013478" stroke="#013478"/>
<path d="M474.548 27.234C476.836 27.938 478.992 28.554 481.236 29.126C485.328 30.138 487.176 32.074 487.176 34.934C487.176 38.63 483.744 41.05 478.552 41.05C471.644 41.05 469.18 36.166 468.256 33.878L465.616 35.462C468.08 41.666 474.02 43.778 478.552 43.778C485.24 43.778 490.212 40.214 490.212 34.714C490.212 29.742 485.988 27.322 481.984 26.31C479.696 25.738 477.584 25.166 475.472 24.506C471.116 23.142 469.4 21.426 469.4 18.786C469.4 15.398 472.48 13.11 477.32 13.11C482.072 13.11 485.548 16.454 486.824 19.006L489.288 17.026C486.472 13.198 482.512 10.514 477.32 10.514C470.984 10.514 466.54 13.726 466.54 18.874C466.54 23.494 470.676 26.002 474.548 27.234Z" fill="white"/>
<path d="M38.0375 55.5H0V111H38.0375V55.5Z" fill="#013478" stroke="#013478"/>
<path d="M19.424 98.53H22.284V85.99L32.844 66.762H29.588L20.832 83.262L12.296 66.762H9.04L19.424 86.034V98.53Z" fill="white"/>
<path d="M75.8805 55.5H38.0375V111H75.8805V55.5Z" fill="#013478" stroke="#013478"/>
<path d="M53.791 82.734C56.079 83.438 58.235 84.054 60.479 84.626C64.571 85.638 66.419 87.574 66.419 90.434C66.419 94.13 62.987 96.55 57.795 96.55C50.887 96.55 48.423 91.666 47.499 89.378L44.859 90.962C47.323 97.166 53.263 99.278 57.795 99.278C64.483 99.278 69.455 95.714 69.455 90.214C69.455 85.242 65.231 82.822 61.227 81.81C58.939 81.238 56.827 80.666 54.715 80.006C50.359 78.642 48.643 76.926 48.643 74.286C48.643 70.898 51.723 68.61 56.563 68.61C61.315 68.61 64.791 71.954 66.067 74.506L68.531 72.526C65.715 68.698 61.755 66.014 56.563 66.014C50.227 66.014 45.783 69.226 45.783 74.374C45.783 78.994 49.919 81.502 53.791 82.734Z" fill="white"/>
<path d="M110.907 55.5H75.8805V111H110.907V55.5Z" fill="#013478" stroke="#013478"/>
<path d="M91.854 69.358V98.53H94.714V69.358H105.582V66.762H80.898V69.358H91.854Z" fill="white"/>
<path d="M148.882 55.5H110.908V111H148.882V55.5Z" fill="#013478" stroke="#013478"/>
<path d="M119.005 98.53H140.697V95.89H121.821V83.79H137.045V81.194H121.821V69.358H140.213V66.762H119.005V98.53Z" fill="white"/>
<path d="M195.13 55.5H148.883V111H195.13V55.5Z" fill="#013478" stroke="#013478"/>
<path d="M170.092 98.53H173.876L184.304 69.05L184.26 98.53H186.988V66.762H182.236L171.984 95.89L161.732 66.762H156.98V98.53H159.708L159.664 69.05L170.092 98.53Z" fill="white"/>
<path d="M240.473 55.5H195.13V111H240.473V55.5Z" fill="#013478" stroke="#013478"/>
<path d="M210.883 82.734C213.171 83.438 215.327 84.054 217.571 84.626C221.663 85.638 223.511 87.574 223.511 90.434C223.511 94.13 220.079 96.55 214.887 96.55C207.979 96.55 205.515 91.666 204.591 89.378L201.951 90.962C204.415 97.166 210.355 99.278 214.887 99.278C221.575 99.278 226.547 95.714 226.547 90.214C226.547 85.242 222.323 82.822 218.319 81.81C216.031 81.238 213.919 80.666 211.807 80.006C207.451 78.642 205.735 76.926 205.735 74.286C205.735 70.898 208.815 68.61 213.655 68.61C218.407 68.61 221.883 71.954 223.159 74.506L225.623 72.526C222.807 68.698 218.847 66.014 213.655 66.014C207.319 66.014 202.875 69.226 202.875 74.374C202.875 78.994 207.011 81.502 210.883 82.734Z" fill="white"/>
<path d="M267.732 55.5H240.473V111H267.732V55.5Z" fill="#F1F1F1" stroke="#F1F1F1"/>
<path d="M256.114 98.53H258.842V66.762H256.114V98.53Z" fill="black"/>
<path d="M308.127 55.5H267.732V111H308.127V55.5Z" fill="#F1F1F1" stroke="#F1F1F1"/>
<path d="M298.973 98.53V66.762H296.289V95.89L280.493 66.762H275.829V98.53H278.557L278.513 68.83L294.617 98.53H298.973Z" fill="black"/>
<path d="M343.153 55.5H308.126V111H343.153V55.5Z" fill="#F1F1F1" stroke="#F1F1F1"/>
<path d="M324.1 69.358V98.53H326.96V69.358H337.828V66.762H313.144V69.358H324.1Z" fill="black"/>
<path d="M381.129 55.5H343.154V111H381.129V55.5Z" fill="#F1F1F1" stroke="#F1F1F1"/>
<path d="M351.251 98.53H372.943V95.89H354.067V83.79H369.291V81.194H354.067V69.358H372.459V66.762H351.251V98.53Z" fill="black"/>
<path d="M419.896 55.5H381.129V111H419.896V55.5Z" fill="#F1F1F1" stroke="#F1F1F1"/>
<path d="M401.766 84.054C406.694 84.054 409.07 86.078 409.114 90.786C409.158 93.954 409.51 97.298 410.126 98.53H413.47C412.502 97.21 412.194 93.514 412.106 90.742C411.974 85.77 409.378 82.822 405.066 82.69C409.642 82.118 412.81 79.17 412.81 75.122C412.81 69.974 408.674 66.762 403.086 66.762H389.226V98.53H392.042V84.054H401.766ZM403.306 69.402C407.09 69.402 409.906 71.646 409.906 75.342C409.906 78.906 406.738 81.414 402.338 81.414H392.042V69.402H403.306Z" fill="black"/>
<path d="M460.291 55.5H419.896V111H460.291V55.5Z" fill="#F1F1F1" stroke="#F1F1F1"/>
<path d="M451.137 98.53V66.762H448.453V95.89L432.657 66.762H427.993V98.53H430.721L430.677 68.83L446.781 98.53H451.137Z" fill="black"/>
<path d="M500 55.5H460.291V111H500V55.5Z" fill="#F1F1F1" stroke="#F1F1F1"/>
<path d="M484.8 90.17L487.352 98.53H490.3L480.488 66.762H476.528L466.188 98.53H469.092L471.732 90.17H484.8ZM484.184 87.618H472.48L478.508 68.962L484.184 87.618Z" fill="black"/>
</g>
<defs>
<clipPath id="clip0">
<rect width="500" height="111" fill="white"/>
</clipPath>
</defs>
</svg>
