<svg width="379" height="107" viewBox="0 0 379 107" fill="none" xmlns="http://www.w3.org/2000/svg" role="img" aria-labelledby="fathom-name">
  <title id="fathom-name">Fathom Information Design</title>

<path d="M11 89.8761V82.2195H21.5479V29.8878H11V22.161H71.9512V45.6224H65.3676C63.4327 38.879 61.6157 34.5707 59.9167 32.6976C58.2177 30.7776 55.2917 29.8176 51.1386 29.8176H34.9274V53.0683H40.2368C43.6819 53.0683 45.9237 52.5063 46.9619 51.3824C48.0474 50.2117 48.9205 47.402 49.5812 42.9532H56.2356V70.559H49.5812C49.0149 65.9229 48.1654 62.9961 47.0327 61.7785C45.9473 60.561 43.6819 59.9522 40.2368 59.9522H34.9274V82.2195H47.1035V89.8761H11ZM102.958 73.158V66.4146C102.25 66.6956 101.495 66.9298 100.692 67.1171C99.9373 67.2576 99.1586 67.3746 98.3563 67.4683H98.2855C93.8021 68.1707 90.7345 69.0839 89.0827 70.2078C87.4781 71.3317 86.6758 73.2751 86.6758 76.038C86.6286 76.1317 86.605 76.2488 86.605 76.3893C86.605 76.4829 86.605 76.6 86.605 76.7405C86.605 78.52 87.2421 80.042 88.5164 81.3063C89.7906 82.5239 91.3244 83.1327 93.1178 83.1327C93.2594 83.1327 93.3774 83.1327 93.4717 83.1327C93.6133 83.1327 93.7313 83.1327 93.8257 83.1327C96.3742 82.9454 98.5215 81.9385 100.268 80.1122C102.061 78.239 102.958 76.038 102.958 73.5093C102.958 73.4156 102.958 73.3454 102.958 73.2985C102.958 73.2517 102.958 73.1815 102.958 73.0878V73.158ZM114.001 90.438C113.907 90.438 113.789 90.438 113.647 90.438C113.553 90.438 113.435 90.438 113.293 90.438C110.839 90.438 108.739 89.5717 106.993 87.839C105.247 86.1063 104.374 84.0224 104.374 81.5873C104.374 81.5405 104.374 81.5171 104.374 81.5171C104.374 81.4702 104.374 81.4234 104.374 81.3766H103.878C102.462 84.1395 100.409 86.3639 97.7192 88.0498C95.0291 89.7824 92.0323 90.6488 88.7287 90.6488C88.6343 90.6488 88.54 90.6488 88.4456 90.6488C88.3512 90.6488 88.2568 90.6488 88.1624 90.6488H88.2332C87.9972 90.6488 87.7377 90.6488 87.4545 90.6488C87.1713 90.6956 86.8882 90.719 86.605 90.719C83.1126 90.719 80.1158 89.5015 77.6145 87.0663C75.1604 84.6312 73.9334 81.681 73.9334 78.2156V78.1454C73.9334 78.1454 73.9334 78.122 73.9334 78.0751C73.9334 78.0283 73.9334 77.9815 73.9334 77.9346C73.9334 76.3424 74.2401 74.8205 74.8537 73.3688C75.4672 71.9171 76.3167 70.6761 77.4021 69.6459C79.9978 67.6322 82.8767 66.0634 86.0387 64.9395C89.2479 63.7688 92.6222 63.1834 96.1618 63.1834H96.2326C99.1586 62.762 100.999 62.4341 101.754 62.2C102.557 61.9659 102.958 61.4507 102.958 60.6546V56.0185C102.958 52.9746 102.203 50.8205 100.692 49.5561C99.2294 48.2449 96.9405 47.5893 93.8257 47.5893C93.7313 47.5893 93.6369 47.5893 93.5425 47.5893C93.4953 47.5893 93.4245 47.5893 93.3302 47.5893C92.1031 47.5893 90.8997 47.7532 89.7198 48.081C88.5872 48.362 87.5017 48.8068 86.4634 49.4156L86.5342 49.3454C87.3837 49.8605 88.068 50.5629 88.5872 51.4527C89.1063 52.3424 89.3659 53.3024 89.3659 54.3327C89.3659 54.3795 89.3659 54.4263 89.3659 54.4732C89.3659 54.4732 89.3659 54.4966 89.3659 54.5434V54.4732C89.3187 56.159 88.7051 57.5873 87.5253 58.758C86.3454 59.9288 84.906 60.5141 83.207 60.5141C83.1126 60.5141 83.0182 60.5141 82.9239 60.5141C82.8767 60.4673 82.8059 60.4439 82.7115 60.4439C82.6643 60.4439 82.5935 60.4673 82.4991 60.5141C82.4047 60.5141 82.3339 60.5141 82.2867 60.5141C80.4934 60.5141 78.9595 59.882 77.6853 58.6176C76.4111 57.3532 75.7739 55.8312 75.7739 54.0517C75.7739 54.0049 75.7739 53.9815 75.7739 53.9815C75.7739 53.9346 75.7739 53.8878 75.7739 53.841V53.9112C75.7739 51.8976 76.3403 50.118 77.4729 48.5727C78.6056 47.0273 80.1158 45.7395 82.0036 44.7093C83.9385 43.6322 86.1803 42.8127 88.7287 42.2507C91.2772 41.6888 93.9437 41.4078 96.7281 41.4078C99.843 41.4078 102.533 41.759 104.798 42.4615C107.111 43.1171 109.022 44.1005 110.532 45.4117C112.043 46.7229 113.152 48.3385 113.86 50.2585C114.615 52.1785 114.992 54.3795 114.992 56.8615V79.9015C114.992 81.0722 115.205 81.9151 115.629 82.4302C116.101 82.8985 116.856 83.1327 117.895 83.1327C118.555 83.1327 119.193 82.7815 119.806 82.079C120.42 81.3766 120.939 80.3229 121.363 78.918L125.682 80.8849C124.502 84.2566 122.968 86.6917 121.08 88.1902C119.24 89.6888 116.88 90.438 114.001 90.438ZM133.398 31.2224V42.7424H124.124V49.8371H133.186V76.6C133.138 76.881 133.091 77.1854 133.044 77.5132C133.044 77.7941 133.044 78.0985 133.044 78.4263C133.044 81.8917 134.271 84.842 136.725 87.2771C139.226 89.759 142.223 91 145.716 91C145.999 91 146.258 91 146.494 91C146.73 91 146.966 90.9766 147.202 90.9298H147.131C151.096 90.9298 154.399 89.7824 157.042 87.4878C159.732 85.1932 161.691 81.5171 162.918 76.4595L157.609 74.5629C156.617 77.5132 155.579 79.6907 154.494 81.0956C153.455 82.4537 152.181 83.1327 150.671 83.1327C148.642 83.1327 147.226 82.5473 146.424 81.3766C145.668 80.2059 145.291 78.4966 145.291 76.2488V49.8371H160.865V42.7424H145.291V29.8878L133.398 31.2224ZM168.015 89.8761H193.783V82.2898H187.412V64.0966C187.412 63.8624 187.388 63.6517 187.341 63.4644C187.341 63.2302 187.341 62.9961 187.341 62.762C187.341 59.5307 188.403 56.7444 190.526 54.4029C192.697 52.0615 195.34 50.7268 198.455 50.399H198.526C198.573 50.399 198.62 50.399 198.667 50.399C198.762 50.399 198.856 50.399 198.951 50.399C199.895 50.399 200.768 50.5863 201.57 50.961C202.372 51.2888 203.08 51.7571 203.694 52.3659C204.496 53.2556 205.109 54.2859 205.534 55.4566C206.006 56.6273 206.242 57.8683 206.242 59.1795C206.242 59.3668 206.242 59.5307 206.242 59.6712C206.242 59.8117 206.242 59.9522 206.242 60.0927V82.2898H199.8V89.8761H225.568V82.2898H218.206V57.1424C218.206 52.4127 217.05 48.6429 214.737 45.8332C212.425 42.9766 209.074 41.5483 204.685 41.5483C202.703 41.642 200.838 41.9932 199.092 42.602C197.299 43.2107 195.647 44.0537 194.137 45.1307C192.674 46.161 191.376 47.402 190.243 48.8537C189.111 50.2585 188.19 51.8273 187.482 53.56L187.412 53.7005V19H168.015V27.0078H175.377V82.2898H168.015V89.8761ZM263.937 66.1337C263.937 59.5776 262.875 54.8478 260.751 51.9444C258.675 49.041 255.749 47.5893 251.973 47.5893C248.198 47.5893 245.39 49.0644 243.549 52.0146C241.756 54.918 240.859 59.6244 240.859 66.1337C240.859 72.5961 241.897 77.3259 243.974 80.3229C246.05 83.2732 249 84.7483 252.823 84.7483C256.504 84.7483 259.265 83.2732 261.105 80.3229C262.993 77.3259 263.937 72.5961 263.937 66.1337ZM252.398 90.9298C252.162 90.9298 251.926 90.9298 251.69 90.9298C251.454 90.9766 251.195 91 250.911 91C247.702 91 244.682 90.3912 241.85 89.1737C239.018 87.9561 236.541 86.2937 234.417 84.1863C232.293 82.079 230.618 79.6205 229.391 76.8107C228.164 74.001 227.55 71.0039 227.55 67.8195C227.55 67.5385 227.55 67.281 227.55 67.0468C227.597 66.7659 227.621 66.5083 227.621 66.2741V66.3444C227.621 66.1571 227.621 65.9698 227.621 65.7824C227.621 65.5951 227.621 65.3844 227.621 65.1502C227.621 61.8722 228.235 58.8049 229.462 55.9483C230.736 53.0449 232.435 50.5161 234.559 48.362C236.73 46.2078 239.278 44.522 242.204 43.3044C245.083 42.04 248.174 41.4078 251.478 41.4078C251.666 41.4078 251.832 41.4078 251.973 41.4078C252.115 41.4078 252.28 41.4078 252.469 41.4078H252.398C252.634 41.4078 252.87 41.4078 253.106 41.4078C253.389 41.4078 253.649 41.4078 253.885 41.4078C257.141 41.4078 260.185 42.0166 263.017 43.2341C265.848 44.4049 268.302 46.0439 270.379 48.1512C272.503 50.2585 274.178 52.7171 275.405 55.5268C276.632 58.3366 277.246 61.3337 277.246 64.518C277.246 64.7522 277.222 65.0098 277.175 65.2907C277.175 65.5249 277.175 65.759 277.175 65.9932V65.9229C277.175 66.1102 277.175 66.321 277.175 66.5551C277.222 66.7424 277.246 66.9298 277.246 67.1171C277.246 70.3951 276.609 73.4859 275.334 76.3893C274.06 79.2927 272.337 81.8215 270.167 83.9756C267.996 86.1298 265.447 87.839 262.521 89.1034C259.642 90.321 256.527 90.9298 253.177 90.9298C253.035 90.9298 252.894 90.9298 252.752 90.9298C252.61 90.9298 252.469 90.9298 252.327 90.9298H252.398ZM330.481 53.9112C330.481 53.8176 330.481 53.7473 330.481 53.7005C330.481 53.6068 330.481 53.5132 330.481 53.4195C330.481 50.1415 329.301 47.3551 326.941 45.0605C324.629 42.719 321.821 41.5483 318.517 41.5483C318.375 41.5483 318.234 41.5483 318.092 41.5483C317.998 41.5483 317.903 41.5483 317.809 41.5483C315.827 41.6888 313.939 42.1102 312.146 42.8127C310.352 43.5151 308.701 44.4283 307.19 45.5522C305.727 46.6761 304.43 47.9873 303.297 49.4859C302.164 50.9844 301.244 52.6 300.536 54.3327V54.4732V42.2507H281.635V49.8371H288.926V82.2898H281.635V89.8761H306.836V82.2898H301.032V64.0966C300.984 63.8624 300.961 63.6517 300.961 63.4644C300.961 63.2302 300.961 62.9961 300.961 62.762C300.961 59.6244 301.975 56.9083 304.005 54.6137C306.034 52.2722 308.535 50.8673 311.509 50.399H311.579C311.674 50.399 311.745 50.399 311.792 50.399C311.839 50.399 311.886 50.399 311.933 50.399C312.83 50.399 313.656 50.5629 314.411 50.8907C315.213 51.1717 315.898 51.5932 316.464 52.1551C317.219 53.0449 317.785 54.0751 318.163 55.2459C318.588 56.4166 318.8 57.6341 318.8 58.8985C318.8 59.1327 318.8 59.3434 318.8 59.5307C318.8 59.718 318.8 59.9054 318.8 60.0927V82.2898H312.995V89.8761H336.71V82.2898H330.905V64.0966C330.858 63.9093 330.835 63.6985 330.835 63.4644C330.835 63.2302 330.835 63.0195 330.835 62.8322C330.835 59.6946 331.849 56.9785 333.879 54.6839C335.908 52.3424 338.409 50.9141 341.383 50.399H341.453C341.5 50.399 341.548 50.399 341.595 50.399C341.689 50.399 341.76 50.399 341.807 50.399C342.657 50.399 343.459 50.5629 344.214 50.8907C345.016 51.1717 345.701 51.5932 346.267 52.1551C347.022 53.0917 347.612 54.1454 348.037 55.3161C348.462 56.4868 348.674 57.7278 348.674 59.039C348.674 59.2263 348.674 59.4137 348.674 59.601C348.674 59.7415 348.674 59.9054 348.674 60.0927V82.2898H342.869V89.8761H368V82.2898H360.779V57.1424C360.779 52.4127 359.67 48.6429 357.452 45.8332C355.281 42.9766 352.025 41.5483 347.683 41.5483C345.748 41.6888 343.907 42.0868 342.161 42.7424C340.368 43.3512 338.716 44.1941 337.206 45.2712C335.743 46.3483 334.445 47.6127 333.312 49.0644C332.18 50.4693 331.259 52.038 330.551 53.7707L330.481 53.9112Z" fill="#BFBFBF"/>
</svg>
