<svg width="225" height="225" viewBox="0 0 225 225" fill="none" xmlns="http://www.w3.org/2000/svg" role="img" labelledBy="dma-name">
  <title id="dma-name">UCLA Design Media Arts</title>
<rect width="225" height="225" fill="#1500FF"/>
<path d="M29.7783 146H51.5658C56.3781 146 60.4422 144.944 63.758 142.831C67.1031 140.865 69.7147 138.371 71.5926 135.348C72.2969 134.204 72.8984 133.104 73.3973 132.047C73.8667 130.962 74.2189 129.729 74.4536 128.35C74.9525 125.621 75.2019 120.809 75.2019 113.913C75.2019 107.428 75.0405 102.865 74.7177 100.224C74.3069 97.5834 73.3239 95.0599 71.7687 92.6537C67.4259 85.494 60.9116 81.8847 52.226 81.826H29.7783V146ZM39.5057 91.0252H51.1256C56.0553 90.9078 59.87 92.7124 62.5695 96.439C63.89 97.9355 64.7263 99.8869 65.0784 102.293C65.3425 104.699 65.4745 108.69 65.4745 114.265C65.4745 119.987 65.3425 123.89 65.0784 125.973C64.785 128.086 64.0954 129.832 63.0097 131.211C60.5449 134.938 56.5835 136.801 51.1256 136.801H39.5057V91.0252ZM86.5578 146H96.2851V105.99H96.4611L109.886 136.801H117.985L131.409 105.99H131.629V146H141.357V81.826H132.157L114.111 123.64L95.7129 81.826H86.5578V146ZM166.225 123.024L175.512 94.9865H175.688L184.975 123.024H166.225ZM192.722 146H202.978L179.65 81.826H171.507L148.179 146H158.478L163.408 131.651H187.748L192.722 146Z" fill="white"/>
</svg>
