<svg xmlns="http://www.w3.org/2000/svg" viewBox="0 0 640.81 571.62"><defs><style>.cls-1,.cls-10,.cls-3,.cls-4{font-size:12px;}.cls-1,.cls-5{fill:#bbbdbf;}.cls-1,.cls-10,.cls-3,.cls-4,.cls-9{font-family:SpaceGrotesk-Light, Space Grotesk;font-weight:300;}.cls-2,.cls-6,.cls-8{fill:none;stroke-miterlimit:10;}.cls-2{stroke:#bbbdbf;}.cls-2,.cls-8{stroke-width:0.5px;}.cls-3,.cls-4,.cls-7{fill:red;}.cls-3{letter-spacing:-0.01em;}.cls-6{stroke:red;stroke-width:0.75px;}.cls-8{stroke:#000;}.cls-9{font-size:11.89px;}</style></defs><g id="Layer_2" data-name="Layer 2"><g id="Layer_2-2" data-name="Layer 2"><text class="cls-1" transform="translate(180.89 10.37)">0</text><text class="cls-1" transform="translate(216.27 10.37)">20</text><text class="cls-1" transform="translate(250.19 10.37)">40</text><text class="cls-1" transform="translate(284.16 10.2)">60</text><text class="cls-1" transform="translate(319.46 10.37)">80</text><text class="cls-1" transform="translate(352.55 10.37)">100</text><text class="cls-1" transform="translate(387.11 10.37)">120</text><text class="cls-1" transform="translate(419.71 10.37)">140</text><text class="cls-1" transform="translate(455.79 10.37)">160</text><text class="cls-1" transform="translate(489.95 10.37)">180</text><text class="cls-1" transform="translate(521.67 10.37)">200</text><text class="cls-1" transform="translate(251.54 79.78)">0</text><text class="cls-1" transform="translate(286.93 79.78)">20</text><text class="cls-1" transform="translate(320.85 79.78)">40</text><text class="cls-1" transform="translate(354.82 79.61)">60</text><text class="cls-1" transform="translate(390.12 79.78)">80</text><text class="cls-1" transform="translate(423.21 79.78)">100</text><text class="cls-1" transform="translate(457.76 79.78)">120</text><text class="cls-1" transform="translate(490.37 79.78)">140</text><text class="cls-1" transform="translate(526.45 79.78)">160</text><text class="cls-1" transform="translate(560.61 79.78)">180</text><text class="cls-1" transform="translate(592.33 79.78)">200</text><line class="cls-2" x1="190.15" y1="15.09" x2="190.15" y2="359.03"/><line class="cls-2" x1="224.58" y1="15.09" x2="224.58" y2="359.03"/><line class="cls-2" x1="259.02" y1="15.09" x2="259.02" y2="359.03"/><line class="cls-2" x1="293.45" y1="15.09" x2="293.45" y2="359.03"/><line class="cls-2" x1="327.89" y1="15.09" x2="327.89" y2="359.03"/><line class="cls-2" x1="362.32" y1="15.09" x2="362.32" y2="359.03"/><line class="cls-2" x1="396.76" y1="15.09" x2="396.76" y2="359.03"/><line class="cls-2" x1="431.19" y1="15.09" x2="431.19" y2="359.03"/><line class="cls-2" x1="465.62" y1="15.09" x2="465.62" y2="359.03"/><line class="cls-2" x1="500.06" y1="15.09" x2="500.06" y2="359.03"/><line class="cls-2" x1="534.49" y1="15.09" x2="534.49" y2="359.03"/><line class="cls-2" x1="534.49" y1="14.88" x2="190.35" y2="14.88"/><line class="cls-2" x1="534.49" y1="49.32" x2="190.35" y2="49.32"/><line class="cls-2" x1="534.49" y1="83.75" x2="190.35" y2="83.75"/><line class="cls-2" x1="534.49" y1="118.19" x2="190.35" y2="118.19"/><line class="cls-2" x1="534.49" y1="152.62" x2="190.35" y2="152.62"/><line class="cls-2" x1="534.49" y1="187.06" x2="190.35" y2="187.06"/><line class="cls-2" x1="534.49" y1="221.49" x2="190.35" y2="221.49"/><line class="cls-2" x1="534.49" y1="255.93" x2="190.35" y2="255.93"/><line class="cls-2" x1="534.49" y1="290.36" x2="190.35" y2="290.36"/><line class="cls-2" x1="534.49" y1="324.79" x2="190.35" y2="324.79"/><line class="cls-2" x1="534.49" y1="359.23" x2="190.35" y2="359.23"/><text class="cls-3" transform="translate(163.84 42.44)">A</text><text class="cls-4" transform="translate(611.83 123.06)">B</text><text class="cls-4" transform="translate(269.67 183.44)">C</text><text class="cls-1" transform="translate(171.79 53.44)">20</text><rect class="cls-2" x="190.15" y="14.87" width="344.35" height="69.14"/><line class="cls-2" x1="259.74" y1="84.01" x2="259.74" y2="427.95"/><line class="cls-2" x1="294.17" y1="84.01" x2="294.17" y2="427.95"/><line class="cls-2" x1="328.61" y1="84.01" x2="328.61" y2="427.95"/><line class="cls-2" x1="363.04" y1="84.01" x2="363.04" y2="427.95"/><line class="cls-2" x1="397.48" y1="84.01" x2="397.48" y2="427.95"/><line class="cls-2" x1="431.91" y1="84.01" x2="431.91" y2="427.95"/><line class="cls-2" x1="466.35" y1="84.01" x2="466.35" y2="427.95"/><line class="cls-2" x1="500.78" y1="84.01" x2="500.78" y2="427.95"/><line class="cls-2" x1="535.22" y1="84.01" x2="535.22" y2="427.95"/><line class="cls-2" x1="569.65" y1="84.01" x2="569.65" y2="427.95"/><line class="cls-2" x1="604.09" y1="84.01" x2="604.09" y2="427.95"/><line class="cls-2" x1="604.09" y1="83.81" x2="259.94" y2="83.81"/><line class="cls-2" x1="604.09" y1="118.24" x2="259.94" y2="118.24"/><line class="cls-2" x1="604.09" y1="152.68" x2="259.94" y2="152.68"/><line class="cls-2" x1="604.09" y1="187.11" x2="259.94" y2="187.11"/><line class="cls-2" x1="604.09" y1="221.55" x2="259.94" y2="221.55"/><line class="cls-2" x1="604.09" y1="255.98" x2="259.94" y2="255.98"/><line class="cls-2" x1="604.09" y1="290.42" x2="259.94" y2="290.42"/><line class="cls-2" x1="604.09" y1="324.85" x2="259.94" y2="324.85"/><line class="cls-2" x1="604.09" y1="359.29" x2="259.94" y2="359.29"/><line class="cls-2" x1="604.09" y1="393.72" x2="259.94" y2="393.72"/><line class="cls-2" x1="604.09" y1="428.15" x2="259.94" y2="428.15"/><text class="cls-1" transform="translate(241.38 122.37)">20</text><text class="cls-1" transform="translate(241.09 156.84)">40</text><text class="cls-1" transform="translate(241.38 191.31)">60</text><text class="cls-1" transform="translate(241.09 225.78)">80</text><text class="cls-1" transform="translate(236.26 260.25)">100</text><text class="cls-1" transform="translate(236.5 294.72)">120</text><text class="cls-1" transform="translate(236.26 329.19)">140</text><text class="cls-1" transform="translate(236.5 363.66)">160</text><text class="cls-1" transform="translate(236.26 398.13)">180</text><text class="cls-1" transform="translate(233.78 432.6)">200</text><rect class="cls-2" x="259.74" y="83.79" width="344.35" height="344.36"/><text class="cls-1" transform="translate(171.49 87.91)">40</text><text class="cls-1" transform="translate(171.79 122.38)">60</text><text class="cls-1" transform="translate(171.49 156.85)">80</text><text class="cls-1" transform="translate(166.67 191.33)">100</text><text class="cls-1" transform="translate(166.91 225.8)">120</text><text class="cls-1" transform="translate(166.67 260.27)">140</text><text class="cls-1" transform="translate(166.91 294.74)">160</text><text class="cls-1" transform="translate(166.67 329.21)">180</text><text class="cls-1" transform="translate(164.19 363.68)">200</text><rect class="cls-5" x="259.75" y="83.89" width="68.94" height="68.94"/><path class="cls-6" d="M604.09,84l-6.27,41.63A337.89,337.89,0,0,1,540,269.87L514.2,306.48"/><polygon class="cls-7" points="515.11 298.98 516.19 299.28 514.27 306.39 520.32 302.18 520.96 303.1 512.37 309.08 515.11 298.98"/><line class="cls-8" x1="259.65" y1="84.07" x2="23.63" y2="329.94"/><line class="cls-8" x1="283.76" y1="108.19" x2="47.75" y2="354.05"/><line class="cls-8" x1="307.88" y1="132.31" x2="71.86" y2="378.17"/><line class="cls-8" x1="332" y1="156.43" x2="95.98" y2="402.29"/><line class="cls-8" x1="356.12" y1="180.54" x2="120.1" y2="426.41"/><line class="cls-8" x1="380.23" y1="204.66" x2="144.22" y2="450.53"/><line class="cls-8" x1="404.35" y1="228.78" x2="168.33" y2="474.64"/><line class="cls-8" x1="428.47" y1="252.9" x2="192.45" y2="498.76"/><line class="cls-8" x1="452.58" y1="277.01" x2="216.57" y2="522.88"/><line class="cls-8" x1="476.7" y1="301.13" x2="240.68" y2="547"/><line class="cls-8" x1="500.82" y1="325.25" x2="264.8" y2="571.11"/><line class="cls-8" x1="500.96" y1="325.1" x2="259.93" y2="84.07"/><line class="cls-8" x1="477.33" y1="349.72" x2="236.3" y2="108.68"/><line class="cls-8" x1="453.7" y1="374.34" x2="212.67" y2="133.3"/><line class="cls-8" x1="430.07" y1="398.95" x2="189.04" y2="157.92"/><line class="cls-8" x1="406.44" y1="423.57" x2="165.41" y2="182.53"/><line class="cls-8" x1="382.81" y1="448.18" x2="141.78" y2="207.15"/><line class="cls-8" x1="359.18" y1="472.8" x2="118.15" y2="231.76"/><line class="cls-8" x1="335.55" y1="497.41" x2="94.52" y2="256.38"/><line class="cls-8" x1="311.92" y1="522.03" x2="70.89" y2="280.99"/><line class="cls-8" x1="288.29" y1="546.64" x2="47.26" y2="305.61"/><line class="cls-8" x1="264.66" y1="571.26" x2="23.63" y2="330.22"/><text class="cls-9" transform="matrix(0.71, 0.71, -0.69, 0.72, 220.47, 98.63)">20</text><text class="cls-9" transform="matrix(0.71, 0.71, -0.69, 0.72, 196.61, 123.07)">40</text><text class="cls-9" transform="matrix(0.71, 0.71, -0.69, 0.72, 173.16, 147.92)">60</text><text class="cls-9" transform="matrix(0.71, 0.71, -0.69, 0.72, 149.3, 172.35)">80</text><text class="cls-9" transform="matrix(0.71, 0.71, -0.69, 0.72, 122.27, 193.61)">100</text><text class="cls-9" transform="matrix(0.71, 0.71, -0.69, 0.72, 98.78, 218.42)">120</text><text class="cls-9" transform="matrix(0.71, 0.71, -0.69, 0.72, 74.96, 242.9)">140</text><text class="cls-9" transform="matrix(0.71, 0.71, -0.69, 0.72, 51.47, 267.7)">160</text><text class="cls-9" transform="matrix(0.71, 0.71, -0.69, 0.72, 27.65, 292.18)">180</text><text class="cls-9" transform="matrix(0.71, 0.71, -0.69, 0.72, 2.26, 315.08)">200</text><polygon class="cls-8" points="264.66 571.26 23.49 330.08 259.8 83.92 500.97 325.1 264.66 571.26"/><polygon points="260.65 181.49 212.37 133.2 259.67 83.92 307.96 132.2 260.65 181.49"/><line class="cls-6" x1="193.37" y1="19.09" x2="247.94" y2="66.84"/><polygon class="cls-7" points="240.58 65.16 240.99 64.11 247.86 66.77 244.3 60.31 245.29 59.77 250.33 68.94 240.58 65.16"/><text class="cls-10" transform="translate(255.45 71.24) rotate(45)">0</text><text class="cls-10" transform="translate(280.47 96.26) rotate(45)">20</text><text class="cls-10" transform="translate(304.46 120.24) rotate(45)">40</text><text class="cls-10" transform="translate(328.59 144.14) rotate(45)">60</text><text class="cls-10" transform="translate(353.44 169.23) rotate(45)">80</text><text class="cls-10" transform="translate(376.84 192.62) rotate(45)">100</text><text class="cls-10" transform="translate(401.27 217.06) rotate(45)">120</text><text class="cls-10" transform="translate(424.33 240.11) rotate(45)">140</text><text class="cls-10" transform="translate(449.84 265.62) rotate(45)">160</text><text class="cls-10" transform="translate(473.99 289.78) rotate(45)">180</text><text class="cls-10" transform="translate(496.42 312.21) rotate(45)">200</text></g></g></svg>