<svg xmlns="http://www.w3.org/2000/svg" viewBox="0 0 486.7 504.7"><defs><style>.cls-1,.cls-4,.cls-7{fill:none;stroke-miterlimit:10;}.cls-1{stroke:#bbbdbf;}.cls-1,.cls-7{stroke-width:0.5px;}.cls-2,.cls-6{font-size:12px;font-family:SpaceGrotesk-Light, Space Grotesk;font-weight:300;}.cls-2,.cls-3{fill:#bbbdbf;}.cls-4{stroke:red;stroke-width:0.75px;}.cls-5{fill:red;}.cls-7{stroke:#000;}</style></defs><g id="Layer_2" data-name="Layer 2"><g id="Layer_2-2" data-name="Layer 2"><line class="cls-1" x1="25.96" y1="15.09" x2="25.96" y2="359.03"/><line class="cls-1" x1="60.39" y1="15.09" x2="60.39" y2="359.03"/><line class="cls-1" x1="94.83" y1="15.09" x2="94.83" y2="359.03"/><line class="cls-1" x1="129.26" y1="15.09" x2="129.26" y2="359.03"/><line class="cls-1" x1="163.7" y1="15.09" x2="163.7" y2="359.03"/><line class="cls-1" x1="198.13" y1="15.09" x2="198.13" y2="359.03"/><line class="cls-1" x1="232.57" y1="15.09" x2="232.57" y2="359.03"/><line class="cls-1" x1="267" y1="15.09" x2="267" y2="359.03"/><line class="cls-1" x1="301.43" y1="15.09" x2="301.43" y2="359.03"/><line class="cls-1" x1="335.87" y1="15.09" x2="335.87" y2="359.03"/><line class="cls-1" x1="370.3" y1="15.09" x2="370.3" y2="359.03"/><line class="cls-1" x1="370.3" y1="14.88" x2="26.16" y2="14.88"/><line class="cls-1" x1="370.3" y1="49.32" x2="26.16" y2="49.32"/><line class="cls-1" x1="370.3" y1="83.75" x2="26.16" y2="83.75"/><line class="cls-1" x1="370.3" y1="118.19" x2="26.16" y2="118.19"/><line class="cls-1" x1="370.3" y1="152.62" x2="26.16" y2="152.62"/><line class="cls-1" x1="370.3" y1="187.06" x2="26.16" y2="187.06"/><line class="cls-1" x1="370.3" y1="221.49" x2="26.16" y2="221.49"/><line class="cls-1" x1="370.3" y1="255.93" x2="26.16" y2="255.93"/><line class="cls-1" x1="370.3" y1="290.36" x2="26.16" y2="290.36"/><line class="cls-1" x1="370.3" y1="324.79" x2="26.16" y2="324.79"/><line class="cls-1" x1="370.3" y1="359.23" x2="26.16" y2="359.23"/><text class="cls-2" transform="translate(7.6 53.44)">20</text><text class="cls-2" transform="translate(7.3 87.91)">40</text><text class="cls-2" transform="translate(7.6 122.38)">60</text><text class="cls-2" transform="translate(7.3 156.85)">80</text><text class="cls-2" transform="translate(2.48 191.33)">100</text><text class="cls-2" transform="translate(2.72 225.8)">120</text><text class="cls-2" transform="translate(2.48 260.27)">140</text><text class="cls-2" transform="translate(2.72 294.74)">160</text><text class="cls-2" transform="translate(2.48 329.21)">180</text><text class="cls-2" transform="translate(0 363.68)">200</text><rect class="cls-1" x="25.96" y="14.87" width="344.35" height="344.36"/><rect class="cls-3" x="60.39" y="49.32" width="68.94" height="68.94"/><line class="cls-4" x1="28.78" y1="17.04" x2="118.08" y2="134.92"/><polygon class="cls-5" points="111.21 131.78 111.82 130.84 118.01 134.83 115.84 127.79 116.92 127.46 120 137.45 111.21 131.78"/><text class="cls-6" transform="translate(121.04 148.12)">0</text><text class="cls-6" transform="translate(156.42 148.12)">20</text><text class="cls-6" transform="translate(190.34 148.12)">40</text><text class="cls-6" transform="translate(224.31 147.95)">60</text><text class="cls-6" transform="translate(259.61 148.12)">80</text><text class="cls-6" transform="translate(292.7 148.12)">100</text><text class="cls-6" transform="translate(327.26 148.12)">120</text><text class="cls-6" transform="translate(359.86 148.12)">140</text><text class="cls-6" transform="translate(395.94 148.12)">160</text><text class="cls-6" transform="translate(430.1 148.12)">180</text><text class="cls-6" transform="translate(461.82 148.12)">200</text><text class="cls-2" transform="translate(17.73 10.37)">0</text><text class="cls-2" transform="translate(53.12 10.37)">20</text><text class="cls-2" transform="translate(87.04 10.37)">40</text><text class="cls-2" transform="translate(121 10.2)">60</text><text class="cls-2" transform="translate(156.31 10.37)">80</text><text class="cls-2" transform="translate(189.4 10.37)">100</text><text class="cls-2" transform="translate(223.95 10.37)">120</text><text class="cls-2" transform="translate(256.56 10.37)">140</text><text class="cls-2" transform="translate(292.64 10.37)">160</text><text class="cls-2" transform="translate(326.8 10.37)">180</text><text class="cls-2" transform="translate(358.52 10.37)">200</text><line class="cls-7" x1="129.26" y1="152.82" x2="129.26" y2="496.76"/><line class="cls-7" x1="163.7" y1="152.82" x2="163.7" y2="496.76"/><line class="cls-7" x1="198.13" y1="152.82" x2="198.13" y2="496.76"/><line class="cls-7" x1="232.57" y1="152.82" x2="232.57" y2="496.76"/><line class="cls-7" x1="267" y1="152.82" x2="267" y2="496.76"/><line class="cls-7" x1="301.43" y1="152.82" x2="301.43" y2="496.76"/><line class="cls-7" x1="335.87" y1="152.82" x2="335.87" y2="496.76"/><line class="cls-7" x1="370.3" y1="152.82" x2="370.3" y2="496.76"/><line class="cls-7" x1="404.74" y1="152.82" x2="404.74" y2="496.76"/><line class="cls-7" x1="439.17" y1="152.82" x2="439.17" y2="496.76"/><line class="cls-7" x1="473.61" y1="152.82" x2="473.61" y2="496.76"/><line class="cls-7" x1="473.61" y1="152.61" x2="129.46" y2="152.61"/><line class="cls-7" x1="473.61" y1="187.05" x2="129.46" y2="187.05"/><line class="cls-7" x1="473.61" y1="221.48" x2="129.46" y2="221.48"/><line class="cls-7" x1="473.61" y1="255.92" x2="129.46" y2="255.92"/><line class="cls-7" x1="473.61" y1="290.35" x2="129.46" y2="290.35"/><line class="cls-7" x1="473.61" y1="324.79" x2="129.46" y2="324.79"/><line class="cls-7" x1="473.61" y1="359.22" x2="129.46" y2="359.22"/><line class="cls-7" x1="473.61" y1="393.66" x2="129.46" y2="393.66"/><line class="cls-7" x1="473.61" y1="428.09" x2="129.46" y2="428.09"/><line class="cls-7" x1="473.61" y1="462.53" x2="129.46" y2="462.53"/><line class="cls-7" x1="473.61" y1="496.96" x2="129.46" y2="496.96"/><text class="cls-6" transform="translate(110.9 191.17)">20</text><text class="cls-6" transform="translate(110.61 225.64)">40</text><text class="cls-6" transform="translate(110.9 260.11)">60</text><text class="cls-6" transform="translate(110.61 294.59)">80</text><text class="cls-6" transform="translate(105.78 329.06)">100</text><text class="cls-6" transform="translate(106.02 363.53)">120</text><text class="cls-6" transform="translate(105.78 398)">140</text><text class="cls-6" transform="translate(106.02 432.47)">160</text><text class="cls-6" transform="translate(105.78 466.94)">180</text><text class="cls-6" transform="translate(103.3 501.41)">200</text><rect class="cls-7" x="129.26" y="152.6" width="344.35" height="344.36"/><rect x="163.7" y="187.06" width="68.94" height="68.94"/></g></g></svg>