<svg xmlns="http://www.w3.org/2000/svg" viewBox="0 0 384.01 367"><defs><style>.cls-1,.cls-4{fill:none;stroke-miterlimit:10;}.cls-1{stroke:#000;stroke-width:0.5px;}.cls-2{font-size:12px;font-family:SpaceGrotesk-Light, Space Grotesk;font-weight:300;}.cls-3{fill:#bbbdbf;}.cls-4{stroke:red;stroke-width:0.75px;}.cls-5{fill:red;}</style></defs><g id="Layer_2" data-name="Layer 2"><g id="Layer_2-2" data-name="Layer 2"><line class="cls-1" x1="25.96" y1="15.11" x2="25.96" y2="359.05"/><line class="cls-1" x1="60.39" y1="15.11" x2="60.39" y2="359.05"/><line class="cls-1" x1="94.83" y1="15.11" x2="94.83" y2="359.05"/><line class="cls-1" x1="129.26" y1="15.11" x2="129.26" y2="359.05"/><line class="cls-1" x1="163.7" y1="15.11" x2="163.7" y2="359.05"/><line class="cls-1" x1="198.13" y1="15.11" x2="198.13" y2="359.05"/><line class="cls-1" x1="232.57" y1="15.11" x2="232.57" y2="359.05"/><line class="cls-1" x1="267" y1="15.11" x2="267" y2="359.05"/><line class="cls-1" x1="301.43" y1="15.11" x2="301.43" y2="359.05"/><line class="cls-1" x1="335.87" y1="15.11" x2="335.87" y2="359.05"/><line class="cls-1" x1="370.3" y1="15.11" x2="370.3" y2="359.05"/><line class="cls-1" x1="370.3" y1="14.91" x2="26.16" y2="14.91"/><line class="cls-1" x1="370.3" y1="49.35" x2="26.16" y2="49.35"/><line class="cls-1" x1="370.3" y1="83.78" x2="26.16" y2="83.78"/><line class="cls-1" x1="370.3" y1="118.21" x2="26.16" y2="118.21"/><line class="cls-1" x1="370.3" y1="152.65" x2="26.16" y2="152.65"/><line class="cls-1" x1="370.3" y1="187.08" x2="26.16" y2="187.08"/><line class="cls-1" x1="370.3" y1="221.52" x2="26.16" y2="221.52"/><line class="cls-1" x1="370.3" y1="255.95" x2="26.16" y2="255.95"/><line class="cls-1" x1="370.3" y1="290.39" x2="26.16" y2="290.39"/><line class="cls-1" x1="370.3" y1="324.82" x2="26.16" y2="324.82"/><line class="cls-1" x1="370.3" y1="359.26" x2="26.16" y2="359.26"/><text class="cls-2" transform="translate(7.6 53.47)">20</text><text class="cls-2" transform="translate(7.3 87.94)">40</text><text class="cls-2" transform="translate(7.6 122.41)">60</text><text class="cls-2" transform="translate(7.3 156.88)">80</text><text class="cls-2" transform="translate(2.48 191.35)">100</text><text class="cls-2" transform="translate(2.72 225.82)">120</text><text class="cls-2" transform="translate(2.48 260.29)">140</text><text class="cls-2" transform="translate(2.72 294.77)">160</text><text class="cls-2" transform="translate(2.48 329.24)">180</text><text class="cls-2" transform="translate(0 363.71)">200</text><rect class="cls-1" x="25.96" y="14.9" width="344.35" height="344.36"/><rect class="cls-3" x="60.39" y="49.35" width="68.94" height="68.94"/><rect x="163.66" y="187.24" width="68.94" height="68.94"/><line class="cls-4" x1="131.19" y1="120.52" x2="161.01" y2="182.23"/><polygon class="cls-5" points="154.89 177.8 155.68 176.99 160.96 182.13 160.22 174.8 161.34 174.69 162.39 185.09 154.89 177.8"/><text class="cls-2" transform="translate(18.34 10.37)">0</text><text class="cls-2" transform="translate(53.73 10.37)">20</text><text class="cls-2" transform="translate(87.65 10.37)">40</text><text class="cls-2" transform="translate(121.62 10.2)">60</text><text class="cls-2" transform="translate(156.92 10.37)">80</text><text class="cls-2" transform="translate(190.01 10.37)">100</text><text class="cls-2" transform="translate(224.56 10.37)">120</text><text class="cls-2" transform="translate(257.17 10.37)">140</text><text class="cls-2" transform="translate(293.25 10.37)">160</text><text class="cls-2" transform="translate(327.41 10.37)">180</text><text class="cls-2" transform="translate(359.13 10.37)">200</text></g></g></svg>