<svg xmlns="http://www.w3.org/2000/svg" viewBox="0 0 383.4 366.97"><defs><style>.cls-1{fill:none;stroke:#000;stroke-miterlimit:10;stroke-width:0.5px;}.cls-2{font-size:12px;font-family:SpaceGrotesk-Light, Space Grotesk;font-weight:300;}</style></defs><g id="Layer_2" data-name="Layer 2"><g id="Layer_2-2" data-name="Layer 2"><line class="cls-1" x1="25.96" y1="15.09" x2="25.96" y2="359.03"/><line class="cls-1" x1="60.39" y1="15.09" x2="60.39" y2="359.03"/><line class="cls-1" x1="94.83" y1="15.09" x2="94.83" y2="359.03"/><line class="cls-1" x1="129.26" y1="15.09" x2="129.26" y2="359.03"/><line class="cls-1" x1="163.7" y1="15.09" x2="163.7" y2="359.03"/><line class="cls-1" x1="198.13" y1="15.09" x2="198.13" y2="359.03"/><line class="cls-1" x1="232.57" y1="15.09" x2="232.57" y2="359.03"/><line class="cls-1" x1="267" y1="15.09" x2="267" y2="359.03"/><line class="cls-1" x1="301.44" y1="15.09" x2="301.44" y2="359.03"/><line class="cls-1" x1="335.87" y1="15.09" x2="335.87" y2="359.03"/><line class="cls-1" x1="370.3" y1="15.09" x2="370.3" y2="359.03"/><line class="cls-1" x1="370.3" y1="14.88" x2="26.16" y2="14.88"/><line class="cls-1" x1="370.3" y1="49.32" x2="26.16" y2="49.32"/><line class="cls-1" x1="370.3" y1="83.75" x2="26.16" y2="83.75"/><line class="cls-1" x1="370.3" y1="118.19" x2="26.16" y2="118.19"/><line class="cls-1" x1="370.3" y1="152.62" x2="26.16" y2="152.62"/><line class="cls-1" x1="370.3" y1="187.06" x2="26.16" y2="187.06"/><line class="cls-1" x1="370.3" y1="221.49" x2="26.16" y2="221.49"/><line class="cls-1" x1="370.3" y1="255.93" x2="26.16" y2="255.92"/><line class="cls-1" x1="370.3" y1="290.36" x2="26.16" y2="290.36"/><line class="cls-1" x1="370.3" y1="324.79" x2="26.16" y2="324.79"/><line class="cls-1" x1="370.3" y1="359.23" x2="26.16" y2="359.23"/><text class="cls-2" transform="translate(7.6 53.44)">20</text><text class="cls-2" transform="translate(7.3 87.91)">40</text><text class="cls-2" transform="translate(7.6 122.38)">60</text><text class="cls-2" transform="translate(7.3 156.85)">80</text><text class="cls-2" transform="translate(2.48 191.32)">100</text><text class="cls-2" transform="translate(2.72 225.8)">120</text><text class="cls-2" transform="translate(2.48 260.27)">140</text><text class="cls-2" transform="translate(2.72 294.74)">160</text><text class="cls-2" transform="translate(2.48 329.21)">180</text><text class="cls-2" transform="translate(0 363.68)">200</text><text class="cls-2" transform="translate(17.73 10.37)">0</text><text class="cls-2" transform="translate(53.12 10.37)">20</text><text class="cls-2" transform="translate(87.04 10.37)">40</text><text class="cls-2" transform="translate(121 10.2)">60</text><text class="cls-2" transform="translate(156.31 10.37)">80</text><text class="cls-2" transform="translate(189.4 10.37)">100</text><text class="cls-2" transform="translate(223.95 10.37)">120</text><text class="cls-2" transform="translate(256.56 10.37)">140</text><text class="cls-2" transform="translate(292.64 10.37)">160</text><text class="cls-2" transform="translate(326.8 10.37)">180</text><text class="cls-2" transform="translate(358.52 10.37)">200</text><rect class="cls-1" x="25.96" y="14.87" width="344.35" height="344.36"/><rect x="60.39" y="49.32" width="68.94" height="68.94"/></g></g></svg>