<svg xmlns="http://www.w3.org/2000/svg" viewBox="0 0 618.21 506.37"><defs><style>.cls-1,.cls-8{font-size:12px;}.cls-1,.cls-3{fill:#bbbdbf;}.cls-1,.cls-7,.cls-8{font-family:SpaceGrotesk-Light, Space Grotesk;font-weight:300;}.cls-2,.cls-4,.cls-6{fill:none;stroke-miterlimit:10;}.cls-2{stroke:#bbbdbf;}.cls-2,.cls-6{stroke-width:0.5px;}.cls-4{stroke:red;stroke-width:0.75px;}.cls-5{fill:red;}.cls-6{stroke:#000;}.cls-7{font-size:11.89px;}</style></defs><g id="Layer_2" data-name="Layer 2"><g id="Layer_2-2" data-name="Layer 2"><text class="cls-1" transform="translate(252.54 14.32)">0</text><text class="cls-1" transform="translate(287.93 14.32)">20</text><text class="cls-1" transform="translate(321.85 14.32)">40</text><text class="cls-1" transform="translate(355.81 14.15)">60</text><text class="cls-1" transform="translate(391.12 14.32)">80</text><text class="cls-1" transform="translate(424.21 14.32)">100</text><text class="cls-1" transform="translate(458.76 14.32)">120</text><text class="cls-1" transform="translate(491.37 14.32)">140</text><text class="cls-1" transform="translate(527.45 14.32)">160</text><text class="cls-1" transform="translate(561.61 14.32)">180</text><text class="cls-1" transform="translate(593.33 14.32)">200</text><line class="cls-2" x1="259.74" y1="18.76" x2="259.74" y2="362.7"/><line class="cls-2" x1="294.17" y1="18.76" x2="294.17" y2="362.7"/><line class="cls-2" x1="328.61" y1="18.76" x2="328.61" y2="362.7"/><line class="cls-2" x1="363.04" y1="18.76" x2="363.04" y2="362.7"/><line class="cls-2" x1="397.48" y1="18.76" x2="397.48" y2="362.7"/><line class="cls-2" x1="431.91" y1="18.76" x2="431.91" y2="362.7"/><line class="cls-2" x1="466.35" y1="18.76" x2="466.35" y2="362.7"/><line class="cls-2" x1="500.78" y1="18.76" x2="500.78" y2="362.7"/><line class="cls-2" x1="535.22" y1="18.76" x2="535.22" y2="362.7"/><line class="cls-2" x1="569.65" y1="18.76" x2="569.65" y2="362.7"/><line class="cls-2" x1="604.09" y1="18.76" x2="604.09" y2="362.7"/><line class="cls-2" x1="604.09" y1="18.56" x2="259.94" y2="18.56"/><line class="cls-2" x1="604.09" y1="52.99" x2="259.94" y2="52.99"/><line class="cls-2" x1="604.09" y1="87.43" x2="259.94" y2="87.43"/><line class="cls-2" x1="604.09" y1="121.86" x2="259.94" y2="121.86"/><line class="cls-2" x1="604.09" y1="156.3" x2="259.94" y2="156.3"/><line class="cls-2" x1="604.09" y1="190.73" x2="259.94" y2="190.73"/><line class="cls-2" x1="604.09" y1="225.16" x2="259.94" y2="225.16"/><line class="cls-2" x1="604.09" y1="259.6" x2="259.94" y2="259.6"/><line class="cls-2" x1="604.09" y1="294.03" x2="259.94" y2="294.03"/><line class="cls-2" x1="604.09" y1="328.47" x2="259.94" y2="328.47"/><line class="cls-2" x1="604.09" y1="362.9" x2="259.94" y2="362.9"/><text class="cls-1" transform="translate(241.38 57.12)">20</text><text class="cls-1" transform="translate(241.09 91.59)">40</text><text class="cls-1" transform="translate(241.38 126.06)">60</text><text class="cls-1" transform="translate(241.09 160.53)">80</text><text class="cls-1" transform="translate(236.26 195)">100</text><text class="cls-1" transform="translate(236.5 229.47)">120</text><text class="cls-1" transform="translate(236.26 263.94)">140</text><text class="cls-1" transform="translate(236.5 298.41)">160</text><text class="cls-1" transform="translate(236.26 332.88)">180</text><text class="cls-1" transform="translate(233.78 367.35)">200</text><rect class="cls-2" x="259.74" y="18.54" width="344.35" height="344.36"/><rect class="cls-3" x="328.64" y="87.47" width="68.94" height="68.94"/><path class="cls-4" d="M604.09,18.76l-6.27,41.63A337.89,337.89,0,0,1,540,204.62L514.2,241.23"/><polygon class="cls-5" points="515.11 233.73 516.19 234.03 514.27 241.14 520.31 236.93 520.96 237.85 512.37 243.83 515.11 233.73"/><line class="cls-6" x1="259.65" y1="18.82" x2="23.63" y2="264.69"/><line class="cls-6" x1="283.76" y1="42.94" x2="47.75" y2="288.8"/><line class="cls-6" x1="307.88" y1="67.06" x2="71.86" y2="312.92"/><line class="cls-6" x1="332" y1="91.18" x2="95.98" y2="337.04"/><line class="cls-6" x1="356.12" y1="115.29" x2="120.1" y2="361.16"/><line class="cls-6" x1="380.23" y1="139.41" x2="144.21" y2="385.27"/><line class="cls-6" x1="404.35" y1="163.53" x2="168.33" y2="409.39"/><line class="cls-6" x1="428.47" y1="187.65" x2="192.45" y2="433.51"/><line class="cls-6" x1="452.58" y1="211.76" x2="216.57" y2="457.63"/><line class="cls-6" x1="476.7" y1="235.88" x2="240.68" y2="481.75"/><line class="cls-6" x1="500.82" y1="260" x2="264.8" y2="505.86"/><line class="cls-6" x1="500.96" y1="259.85" x2="259.93" y2="18.82"/><line class="cls-6" x1="477.33" y1="284.47" x2="236.3" y2="43.43"/><line class="cls-6" x1="453.7" y1="309.09" x2="212.67" y2="68.05"/><line class="cls-6" x1="430.07" y1="333.7" x2="189.04" y2="92.67"/><line class="cls-6" x1="406.44" y1="358.32" x2="165.41" y2="117.28"/><line class="cls-6" x1="382.81" y1="382.93" x2="141.78" y2="141.9"/><line class="cls-6" x1="359.18" y1="407.55" x2="118.15" y2="166.51"/><line class="cls-6" x1="335.55" y1="432.16" x2="94.52" y2="191.13"/><line class="cls-6" x1="311.92" y1="456.78" x2="70.89" y2="215.74"/><line class="cls-6" x1="288.29" y1="481.39" x2="47.26" y2="240.36"/><line class="cls-6" x1="264.66" y1="506.01" x2="23.63" y2="264.97"/><text class="cls-7" transform="matrix(0.71, 0.71, -0.69, 0.72, 220.47, 33.38)">20</text><text class="cls-7" transform="matrix(0.71, 0.71, -0.69, 0.72, 196.61, 57.82)">40</text><text class="cls-7" transform="matrix(0.71, 0.71, -0.69, 0.72, 173.16, 82.67)">60</text><text class="cls-7" transform="matrix(0.71, 0.71, -0.69, 0.72, 149.3, 107.1)">80</text><text class="cls-7" transform="matrix(0.71, 0.71, -0.69, 0.72, 122.26, 128.36)">100</text><text class="cls-7" transform="matrix(0.71, 0.71, -0.69, 0.72, 98.78, 153.17)">120</text><text class="cls-7" transform="matrix(0.71, 0.71, -0.69, 0.72, 74.96, 177.64)">140</text><text class="cls-7" transform="matrix(0.71, 0.71, -0.69, 0.72, 51.47, 202.45)">160</text><text class="cls-7" transform="matrix(0.71, 0.71, -0.69, 0.72, 27.65, 226.93)">180</text><text class="cls-7" transform="matrix(0.71, 0.71, -0.69, 0.72, 2.26, 249.83)">200</text><polygon class="cls-6" points="264.66 506.01 23.49 264.83 259.8 18.67 500.97 259.85 264.66 506.01"/><polygon points="261.63 213.88 213.34 165.59 260.65 116.31 308.94 164.59 261.63 213.88"/><text class="cls-8" transform="translate(257.09 7.21) rotate(45)">0</text><text class="cls-8" transform="translate(282.11 32.24) rotate(45)">20</text><text class="cls-8" transform="translate(306.1 56.22) rotate(45)">40</text><text class="cls-8" transform="translate(330.23 80.12) rotate(45)">60</text><text class="cls-8" transform="translate(355.08 105.2) rotate(45)">80</text><text class="cls-8" transform="translate(378.47 128.6) rotate(45)">100</text><text class="cls-8" transform="translate(402.91 153.03) rotate(45)">120</text><text class="cls-8" transform="translate(425.96 176.09) rotate(45)">140</text><text class="cls-8" transform="translate(451.47 201.6) rotate(45)">160</text><text class="cls-8" transform="translate(475.63 225.76) rotate(45)">180</text><text class="cls-8" transform="translate(498.06 248.18) rotate(45)">200</text></g></g></svg>